<svg width="116" height="116" viewBox="0 0 116 116" fill="none" xmlns="http://www.w3.org/2000/svg">
<circle cx="58" cy="58" r="58" fill="#2A3352"/>
<path d="M45.5715 16.019C45.1112 19.2413 44.4667 25.9067 45.5715 26.7905" stroke="white" stroke-width="2" stroke-linejoin="round"/>
<path d="M52.2 28.1714C51.4635 32.2222 50.2114 43.3619 51.0952 55.5142" stroke="white" stroke-width="2" stroke-linejoin="round"/>
<path d="M27.6191 28.4476C25.8698 34.0635 23.1448 47.3943 26.2381 55.7905" stroke="white" stroke-width="2" stroke-linejoin="round"/>
<path d="M17.1238 29C15.5587 33.1429 12.7048 42.4229 13.8095 46.4" stroke="white" stroke-width="2" stroke-linejoin="round"/>
<path d="M103.295 29.2762C104.676 34.708 107.162 47.5601 106.057 55.5143" stroke="white" stroke-width="2" stroke-linejoin="round"/>
<path d="M88.6572 46.6761V56.3428" stroke="white" stroke-width="2" stroke-linejoin="round"/>
<path d="M48.6095 63.5238V72.3619" stroke="white" stroke-width="2" stroke-linejoin="round"/>
<path d="M56.619 63.8V72.3619" stroke="white" stroke-width="2" stroke-linejoin="round"/>
<path d="M61.0381 63.5238V72.9143" stroke="white" stroke-width="2" stroke-linejoin="round"/>
<path d="M72.3619 63.5238C72.0857 72.454 71.3124 90.5905 70.4286 91.6952" stroke="white" stroke-width="2" stroke-linejoin="round"/>
<path d="M84.5143 72.6381C83.8698 78.4381 82.4705 90.4247 82.0286 91.9714" stroke="white" stroke-width="2" stroke-linejoin="round"/>
<path d="M102.467 62.6952C102.467 68.8634 100.975 83.1333 95.0095 90.8666" stroke="white" stroke-width="2" stroke-linejoin="round"/>
<path d="M10.7714 62.4191C10.8635 70.1524 12.4286 86.5581 17.9524 90.3143" stroke="white" stroke-width="2" stroke-linejoin="round"/>
<path d="M26.2381 71.5333C25.9619 77.6095 25.9619 90.0381 28.1714 91.1428" stroke="white" stroke-width="2" stroke-linejoin="round"/>
<path d="M35.6286 72.9143C35.1683 77.8857 34.6895 88.4362 36.4571 90.8667" stroke="white" stroke-width="2" stroke-linejoin="round"/>
<path d="M22.9238 90.8667C23.7524 93.9969 26.1276 100.533 29 101.638" stroke="white" stroke-width="2" stroke-linejoin="round"/>
<path d="M3.59045 55.5143C33.419 56.1587 97.1085 57.061 113.238 55.5143" stroke="white" stroke-width="2" stroke-linecap="round" stroke-linejoin="round"/>
<path d="M2.7619 61.3143C27.4349 62.8794 84.1276 65.0705 113.514 61.3143" stroke="white" stroke-width="2" stroke-linecap="round" stroke-linejoin="round"/>
<path d="M13.5333 89.4857C31.5778 91.6032 74.6267 94.5676 102.467 89.4857" stroke="white" stroke-width="2" stroke-linecap="round" stroke-linejoin="round"/>
<path d="M22.6476 100.533C35.0762 102.927 66.7276 106.278 93.9048 100.533" stroke="white" stroke-width="2" stroke-linecap="round" stroke-linejoin="round"/>
<path d="M3.86664 70.4286C26.9746 72.0857 80.979 74.4057 112.133 70.4286" stroke="white" stroke-width="2" stroke-linecap="round" stroke-linejoin="round"/>
<path d="M3.86664 46.1238C3.86664 46.1238 66.0095 47.2285 67.3904 46.1238" stroke="white" stroke-width="2" stroke-linejoin="round"/>
<path d="M85.0667 46.4C85.0667 46.9524 112.133 46.1238 112.133 46.1238" stroke="white" stroke-width="2" stroke-linejoin="round"/>
<path d="M76.781 48.5048C85.2651 48.5048 92.1429 41.6271 92.1429 33.1429C92.1429 24.6588 85.2651 17.781 76.781 17.781C68.2968 17.781 61.4191 24.6588 61.4191 33.1429C61.4191 41.6271 68.2968 48.5048 76.781 48.5048Z" stroke="white" stroke-width="2"/>
<path d="M10.2191 29.2762C26.5143 27.619 46.9524 27.619 62.9714 27.619" stroke="white" stroke-width="2"/>
<path d="M91.4191 28.4476C91.4191 28.4476 100.81 28.7238 105.505 29.5524" stroke="white" stroke-width="2"/>
<path d="M51.0952 3.03809C49.4381 6.62856 46.4 14.859 47.5048 15.7428" stroke="white" stroke-width="2"/>
<path d="M34.5238 11.3239C33.5111 12.5207 31.9276 15.6877 32.5905 16.5715" stroke="white" stroke-width="2"/>
<path d="M18.7809 18.781C37.0095 15.4667 76.3943 14.141 96.9428 18.781" stroke="white" stroke-width="2"/>
<path d="M78.5428 32.8667C78.5428 33.6872 77.8777 34.3524 77.0571 34.3524C76.2366 34.3524 75.5714 33.6872 75.5714 32.8667C75.5714 32.0462 76.2366 31.381 77.0571 31.381C77.8777 31.381 78.5428 32.0462 78.5428 32.8667Z" stroke="white" stroke-width="2"/>
<path d="M81.3047 32.8666C81.3047 35.2125 79.403 37.1143 77.0571 37.1143C74.7112 37.1143 72.8095 35.2125 72.8095 32.8666C72.8095 30.5207 74.7112 28.619 77.0571 28.619C79.403 28.619 81.3047 30.5207 81.3047 32.8666Z" stroke="white" stroke-width="2"/>
<path d="M84.6191 32.8667C84.6191 37.043 81.2335 40.4286 77.0571 40.4286C72.8808 40.4286 69.4952 37.043 69.4952 32.8667C69.4952 28.6904 72.8808 25.3048 77.0571 25.3048C81.2335 25.3048 84.6191 28.6904 84.6191 32.8667Z" stroke="white" stroke-width="2"/>
<path d="M74.8476 21.2667L75.4 24.8572" stroke="white" stroke-width="2" stroke-linecap="round" stroke-linejoin="round"/>
<path d="M63.5238 28.6953L69.149 29.9911" stroke="white" stroke-width="2" stroke-linecap="round" stroke-linejoin="round"/>
<path d="M69.686 41.9939L72.3106 38.8706" stroke="white" stroke-width="2" stroke-linecap="round" stroke-linejoin="round"/>
<path d="M79.7597 44.9318L79.1572 40.8969" stroke="white" stroke-width="2" stroke-linecap="round" stroke-linejoin="round"/>
<path d="M86.8012 34.4222L85.0667 34.1918" stroke="white" stroke-width="2" stroke-linecap="round" stroke-linejoin="round"/>
</svg>
