<svg width="64" height="64" viewBox="0 0 64 64" fill="none" xmlns="http://www.w3.org/2000/svg">
<circle cx="32" cy="32" r="32" fill="#2A3352"/>
<path d="M25.1428 8.83813C24.8889 10.6159 24.5333 14.2934 25.1428 14.781" stroke="white" stroke-linejoin="round"/>
<path d="M28.8001 15.5428C28.3937 17.7778 27.7029 23.9238 28.1905 30.6286" stroke="white" stroke-linejoin="round"/>
<path d="M15.2381 15.6952C14.2731 18.7936 12.7696 26.1485 14.4762 30.7809" stroke="white" stroke-linejoin="round"/>
<path d="M9.44766 16C8.58417 18.2857 7.00957 23.4057 7.61909 25.6" stroke="white" stroke-linejoin="round"/>
<path d="M56.9905 16.1523C57.7524 19.1492 59.1238 26.24 58.5143 30.6285" stroke="white" stroke-linejoin="round"/>
<path d="M48.9143 25.7524V31.0858" stroke="white" stroke-linejoin="round"/>
<path d="M26.8191 35.0476V39.9238" stroke="white" stroke-linejoin="round"/>
<path d="M31.238 35.2V39.9238" stroke="white" stroke-linejoin="round"/>
<path d="M33.6761 35.0476V40.2286" stroke="white" stroke-linejoin="round"/>
<path d="M39.9238 35.0476C39.7715 39.9746 39.3448 49.9809 38.8572 50.5905" stroke="white" stroke-linejoin="round"/>
<path d="M46.6285 40.0762C46.273 43.2762 45.5009 49.8895 45.2571 50.7428" stroke="white" stroke-linejoin="round"/>
<path d="M56.5334 34.5905C56.5334 37.9936 55.7105 45.8666 52.4191 50.1333" stroke="white" stroke-linejoin="round"/>
<path d="M5.94287 34.4381C5.99366 38.7048 6.85716 47.7562 9.90478 49.8286" stroke="white" stroke-linejoin="round"/>
<path d="M14.4762 39.4667C14.3238 42.8191 14.3238 49.6762 15.5429 50.2857" stroke="white" stroke-linejoin="round"/>
<path d="M19.6572 40.2285C19.4032 42.9714 19.1391 48.7923 20.1143 50.1333" stroke="white" stroke-linejoin="round"/>
<path d="M12.6476 50.1333C13.1047 51.8603 14.4152 55.4666 16 56.0762" stroke="white" stroke-linejoin="round"/>
<path d="M1.98096 30.6285C18.4381 30.9841 53.5771 31.4819 62.4762 30.6285" stroke="white" stroke-linecap="round" stroke-linejoin="round"/>
<path d="M1.5238 33.8286C15.1365 34.6921 46.4152 35.901 62.6286 33.8286" stroke="white" stroke-linecap="round" stroke-linejoin="round"/>
<path d="M7.46667 49.3715C17.4222 50.5397 41.1733 52.1753 56.5333 49.3715" stroke="white" stroke-linecap="round" stroke-linejoin="round"/>
<path d="M12.4952 55.4667C19.3524 56.7873 36.8152 58.6362 51.8095 55.4667" stroke="white" stroke-linecap="round" stroke-linejoin="round"/>
<path d="M2.1333 38.8572C14.8825 39.7715 44.6781 41.0515 61.8666 38.8572" stroke="white" stroke-linecap="round" stroke-linejoin="round"/>
<path d="M2.1333 25.4476C2.1333 25.4476 36.419 26.0572 37.1809 25.4476" stroke="white" stroke-linejoin="round"/>
<path d="M46.9333 25.6C46.9333 25.9048 61.8667 25.4476 61.8667 25.4476" stroke="white" stroke-linejoin="round"/>
<path d="M42.3619 26.7096C47.0143 26.7096 50.7857 22.9381 50.7857 18.2857C50.7857 13.6334 47.0143 9.86194 42.3619 9.86194C37.7096 9.86194 33.9381 13.6334 33.9381 18.2857C33.9381 22.9381 37.7096 26.7096 42.3619 26.7096Z" stroke="white"/>
<path d="M5.63806 16.1523C14.6285 15.238 25.9047 15.238 34.7428 15.238" stroke="white"/>
<path d="M50.4381 15.6952C50.4381 15.6952 55.6191 15.8476 58.2095 16.3047" stroke="white"/>
<path d="M28.1905 1.67615C27.2762 3.6571 25.6 8.19805 26.2095 8.68567" stroke="white"/>
<path d="M19.0476 6.24756C18.4889 6.90788 17.6152 8.65518 17.981 9.1428" stroke="white"/>
<path d="M10.3619 10.3619C20.4191 8.53338 42.1486 7.80194 53.4857 10.3619" stroke="white"/>
<path d="M43.3857 18.1334C43.3857 18.6147 42.9955 19.0048 42.5143 19.0048C42.033 19.0048 41.6428 18.6147 41.6428 18.1334C41.6428 17.6521 42.033 17.262 42.5143 17.262C42.9955 17.262 43.3857 17.6521 43.3857 18.1334Z" stroke="white"/>
<path d="M44.9095 18.1333C44.9095 19.4561 43.8371 20.5285 42.5143 20.5285C41.1914 20.5285 40.119 19.4561 40.119 18.1333C40.119 16.8104 41.1914 15.738 42.5143 15.738C43.8371 15.738 44.9095 16.8104 44.9095 18.1333Z" stroke="white"/>
<path d="M46.7381 18.1334C46.7381 20.4661 44.8471 22.3572 42.5143 22.3572C40.1816 22.3572 38.2905 20.4661 38.2905 18.1334C38.2905 15.8006 40.1816 13.9095 42.5143 13.9095C44.8471 13.9095 46.7381 15.8006 46.7381 18.1334Z" stroke="white"/>
<path d="M41.2953 11.7333L41.6 13.7142" stroke="white" stroke-linecap="round" stroke-linejoin="round"/>
<path d="M35.0476 15.8319L38.1512 16.5468" stroke="white" stroke-linecap="round" stroke-linejoin="round"/>
<path d="M38.4475 23.1691L39.8955 21.4459" stroke="white" stroke-linecap="round" stroke-linejoin="round"/>
<path d="M44.0054 24.7899L43.673 22.5638" stroke="white" stroke-linecap="round" stroke-linejoin="round"/>
<path d="M47.8904 18.9916L46.9334 18.8644" stroke="white" stroke-linecap="round" stroke-linejoin="round"/>
</svg>
