<svg width="126" height="75" viewBox="0 0 126 75" fill="none" xmlns="http://www.w3.org/2000/svg">
<path d="M45.1315 28.0437L50.5727 27.3317L46.6861 28.4984L41.2449 30.8318L36.9696 33.1652L33.8603 35.4986L31.5284 37.4431L29.1964 40.1654L28.4191 44.4434L28.8078 48.3324L31.1397 54.1659L33.4717 58.4438L36.581 63.8885L40.4676 68.9442L43.5768 73.2221L34.249 70.1109L28.4191 67.6368L15.982 62.3329L5.87684 56.8882L1 52.6824L4.10928 38.293L14.4274 34.7208L24.9212 31.9985L35.8036 29.6651L45.1315 28.0437Z" fill="#81885E"/>
<path d="M50.5727 27.3317C40.0789 28.7576 16.0597 33.0096 3.93355 38.6098" stroke="black" stroke-linejoin="round"/>
<path d="M30.3624 38.6098C36.2818 31.9013 48.0906 27.061 52.6125 27.3835C59.3952 32.3289 72.0974 43.7678 68.6444 49.9602C64.3281 57.7008 49.2211 78.3424 43.9799 73.182C38.7387 68.0216 22.963 46.9955 30.3624 38.6098Z" fill="#573E26" stroke="black" stroke-linejoin="round"/>
<path d="M44.3541 73.6111C31.3988 69.0739 4.63313 58.5217 1.21293 52.6104" stroke="black" stroke-linejoin="round"/>
<path d="M57.9572 44.4433H59.5119L63.0098 43.6655V45.2211L61.8438 48.8491L60.2892 52.9991L58.7346 55.3326L57.5686 56.4993L52.9047 56.8882L46.0139 54.9437L43.3158 52.9991L42.4108 52.2213L42.0222 51.1522L41.6335 49.9406L42.2339 48.8491H43.9655L46.6861 48.3324H49.7954L52.516 48.0937L54.0706 47.1656L56.4026 45.2211L57.9572 44.4433Z" fill="#39381C"/>
<path d="M63.0098 20.3314L64.4779 20.5045L65.3418 21.8129L64.4779 26.5611L61.8438 30.8318L64.9531 29.6651L67.6737 28.8873L75.8356 27.3317H80.4995L82.8315 29.2762L80.8882 31.6096L75.8356 34.3319L69.2284 37.4431L67.4552 42.1099L62.2325 44.0545L58.7346 44.4434H57.5686L55.6253 45.6101L53.682 47.5546L52.1273 47.9435L46.2974 48.3324L41.6335 49.1102L36.9696 48.7213L33.083 47.9435L31.1397 47.5546L29.9737 46.7768L33.083 43.6656L38.1356 41.3321L44.3541 39.7765L45.5201 38.6098L49.7954 30.8318L53.2933 26.5611L55.2366 24.9982L56.4026 23.4426L57.9572 22.6648L59.0332 21.8129L60.1827 21.0108L61.5418 20.5045L63.0098 20.3314Z" fill="#595F3D"/>
<path d="M112.947 21.3171L115.479 22.665L116.645 23.0538L117.246 23.1887L117.811 23.0538L119.365 23.0538L118.588 24.2205L118.199 24.9983L117.246 25.3872L115.868 26.5539L114.313 27.8806L112.545 29.0995L110.528 29.9506H107.317L104.985 28.8874L102.653 26.5539L100.71 24.2205L99.1552 22.276L98.3779 20.858L97.6005 19.9426L97.6005 19.1648L97.2119 18.7759L97.2119 17.6093H99.5438L106.928 17.3992L110.528 19.5538L112.947 21.3171Z" fill="#888B90"/>
<path d="M107.706 17.6091L104.596 17.998L103.819 17.998L103.042 17.998L102.653 17.998L102.264 17.998L101.098 17.998L100.321 17.998L99.1551 17.998L98.3778 17.6091L97.2118 17.6091L98.7665 14.8868L101.487 11.3867L103.43 9.83106L106.151 7.10858L109.26 4.38628L111.592 2.44192L113.147 2.89225L113.536 3.21958L113.924 3.50282L114.313 3.60844L115.09 4.38628L115.868 5.16405L117.033 7.10858L112.758 9.8309L110.038 13.0196L107.706 17.6091Z" fill="#B5BFBE"/>
<path d="M116.057 22.6314L113.147 21.5831L112.095 20.8013L111.204 20.3314L110.426 19.9425L109.649 19.1647L108.872 18.7758L108.19 18.0735L108.094 17.998L107.706 17.6091L107.706 17.2202L108.19 16.4424L108.872 14.8868L109.512 13.781L111.981 10.4604L114.702 8.54023L117.034 7.10878L118.588 9.8311L119.366 12.5534L119.754 14.109L119.754 17.2203L119.754 18.7759L119.754 20.5725L119.366 21.7355L118.977 23.4427L117.422 23.4427L116.057 22.6314Z" fill="#9CA5AA"/>
<path d="M97.9892 17.998L107.706 17.6091C110.426 19.8129 116.334 24.0649 118.199 23.4427" stroke="black" stroke-linejoin="round"/>
<path d="M108.094 16.8314C108.742 14.8869 111.048 10.4534 115.09 8.27551" stroke="black" stroke-linejoin="round"/>
<path d="M97.2119 18.387C99.0256 22.0167 103.819 29.4318 108.483 30.054" stroke="black" stroke-linejoin="round"/>
<path d="M111.981 2.44189C106.669 6.71982 96.2791 15.8979 97.2119 18.3869" stroke="black" stroke-linejoin="round"/>
<path d="M118.977 23.8315C116.645 26.165 111.281 30.6762 108.483 30.054" stroke="black" stroke-linejoin="round"/>
<path d="M111.981 2.44189C115.608 3.9975 122.086 10.4533 118.977 23.8315" stroke="black" stroke-linejoin="round"/>
<path d="M62.6211 43.6655C63.2689 44.1841 63.4762 48.1768 57.5686 56.8882" stroke="black" stroke-linejoin="round"/>
<path d="M41.6335 49.4991C41.8926 52.2215 46.7638 58.055 57.9572 56.4994" stroke="black" stroke-linejoin="round"/>
<path d="M50.9614 40.9433C53.1638 40.2951 59.0455 38.9988 64.9531 38.9988" stroke="black" stroke-linejoin="round"/>
<path d="M53.682 47.5546C54.5888 46.6471 57.0244 44.6767 57.9572 44.0544" stroke="black" stroke-linejoin="round"/>
<path d="M57.5686 44.4434C59.771 44.8323 65.8082 43.0434 67.6737 42.11" stroke="black" stroke-linejoin="round"/>
<path d="M67.6737 42.4988C68.1919 40.9432 69.2284 37.6764 69.2284 37.0542" stroke="black" stroke-linejoin="round"/>
<path d="M69.2284 37.4431C71.5603 36.6653 78.7894 32.7763 81.2768 31.2207C84.3861 29.2762 82.4428 23.8315 62.2325 30.8317" stroke="black" stroke-linejoin="round"/>
<path d="M29.9737 47.1658C31.1397 44.4434 37.3583 40.71 45.1315 39.7766" stroke="black" stroke-linejoin="round"/>
<path d="M45.1315 39.7764C47.8521 31.2208 58.9678 18.7758 64.5645 20.3314" stroke="black" stroke-linejoin="round"/>
<path d="M64.5645 20.3314C65.7304 20.7203 66.8964 23.8315 59.5119 34.3319" stroke="black" stroke-linejoin="round"/>
<path d="M45.1315 48.3324C47.4634 48.462 52.7492 48.4879 53.682 47.5546" stroke="black" stroke-linejoin="round"/>
<path d="M102.15 49.3695L103.293 49.1102L104.596 51.4436L104.208 52.74L102.653 53.7771L101.487 54.166L100.321 53.3882L99.1552 51.8325L100.321 50.2769L101.415 49.6728L102.15 49.3695Z" fill="#767877"/>
<path d="M29.9737 47.1658C33.2126 48.3325 41.4781 50.1992 45.5201 48.3325" stroke="black" stroke-linejoin="round"/>
<path d="M98.3778 38.2209L100.321 37.832L101.876 41.3322V43.2767L98.3778 45.999H97.1287L95.6572 44.0545L95.2686 41.7211L96.0459 39.7765L97.1287 38.6759L98.3778 38.2209Z" fill="#444645"/>
<path d="M95.6572 43.6656C94.1026 38.9987 98.3778 37.832 100.71 37.832C101.358 39.7765 102.42 43.6656 101.487 43.6656C100.321 43.6656 97.6005 49.4991 95.6572 43.6656Z" stroke="black" stroke-linejoin="round"/>
<path d="M99.5438 52.6103C98.3001 50.7436 101.358 49.4991 103.042 49.1102C103.949 49.888 105.451 51.677 104.208 52.6103C102.653 53.7771 101.098 54.9438 99.5438 52.6103Z" stroke="black" stroke-linejoin="round"/>
</svg>
