<svg width="104" height="88" viewBox="0 0 104 88" fill="none" xmlns="http://www.w3.org/2000/svg">
<g filter="url(#filter0_ddd_25_917)">
<mask id="path-1-inside-1_25_917" fill="white">
<path d="M48.9882 57.0455L46.7243 54.9614L46.4009 54.4695L84.5637 16.5098C84.5637 16.5098 85.3723 15.508 86.9893 16.313C88.6064 17.118 87.7979 18.4418 87.7979 18.4418L48.9882 57.0455Z"/>
</mask>
<path d="M48.9882 57.0455L46.7243 54.9614L46.4009 54.4695L84.5637 16.5098C84.5637 16.5098 85.3723 15.508 86.9893 16.313C88.6064 17.118 87.7979 18.4418 87.7979 18.4418L48.9882 57.0455Z" fill="#C7FFAD"/>
<path d="M46.7243 54.9614L42.5463 57.7081L42.8847 58.2229L43.3379 58.6401L46.7243 54.9614ZM48.9882 57.0455L45.6018 60.7241L49.1221 63.9646L52.5143 60.5904L48.9882 57.0455ZM87.7979 18.4418L91.324 21.9867L91.751 21.562L92.0649 21.048L87.7979 18.4418ZM84.5637 16.5098L88.0898 20.0548L88.2832 19.8624L88.4546 19.6501L84.5637 16.5098ZM46.4009 54.4695L42.8748 50.9245L39.9798 53.8041L42.2229 57.2161L46.4009 54.4695ZM86.9893 16.313L89.2176 11.837L89.2176 11.837L86.9893 16.313ZM43.3379 58.6401L45.6018 60.7241L52.3746 53.3668L50.1107 51.2828L43.3379 58.6401ZM52.5143 60.5904L91.324 21.9867L84.2717 14.8969L45.4621 53.5005L52.5143 60.5904ZM81.0376 12.9649L42.8748 50.9245L49.927 58.0144L88.0898 20.0548L81.0376 12.9649ZM42.2229 57.2161L42.5463 57.7081L50.9023 52.2148L50.5789 51.7228L42.2229 57.2161ZM87.7979 18.4418C92.0649 21.048 92.0664 21.0456 92.0678 21.0432C92.0683 21.0424 92.0698 21.0399 92.0708 21.0383C92.0728 21.035 92.0749 21.0316 92.0769 21.0283C92.081 21.0215 92.0851 21.0147 92.0893 21.0076C92.0977 20.9936 92.1063 20.979 92.1152 20.9638C92.133 20.9334 92.1518 20.9007 92.1714 20.8656C92.2105 20.7956 92.2534 20.7154 92.2985 20.6256C92.3876 20.448 92.4901 20.2228 92.5887 19.9563C92.7771 19.4467 93 18.6541 93 17.6793C93 16.6555 92.7499 15.4494 92.0114 14.2935C91.2814 13.1508 90.268 12.3599 89.2176 11.837L84.7611 20.7891C84.5192 20.6687 84.0111 20.3452 83.5843 19.6771C83.149 18.9958 83 18.2715 83 17.6793C83 17.1361 83.1218 16.7247 83.2092 16.4885C83.2572 16.3586 83.3092 16.2431 83.3604 16.1411C83.3865 16.0891 83.4136 16.0381 83.4417 15.9879C83.4558 15.9627 83.4702 15.9375 83.485 15.9121C83.4924 15.8995 83.5 15.8868 83.5076 15.874C83.5114 15.8676 83.5152 15.8612 83.5191 15.8548C83.5211 15.8516 83.523 15.8484 83.525 15.8452C83.5259 15.8436 83.5274 15.8412 83.5279 15.8404C83.5294 15.838 83.5308 15.8355 87.7979 18.4418ZM89.2176 11.837C87.2391 10.8521 85.1989 10.7666 83.4326 11.4212C82.6341 11.7171 82.0187 12.118 81.5804 12.4707C81.3597 12.6483 81.1762 12.8199 81.028 12.9713C80.9535 13.0474 80.887 13.1194 80.8282 13.186C80.7987 13.2193 80.7711 13.2513 80.7452 13.2819C80.7323 13.2972 80.7198 13.3122 80.7077 13.3268C80.7017 13.3341 80.6958 13.3413 80.69 13.3485C80.6871 13.352 80.6842 13.3556 80.6813 13.3591C80.6799 13.3608 80.6778 13.3635 80.6771 13.3643C80.675 13.367 80.6729 13.3696 84.5637 16.5098C88.4546 19.6501 88.4525 19.6527 88.4504 19.6553C88.4497 19.6561 88.4476 19.6587 88.4462 19.6605C88.4434 19.6639 88.4406 19.6674 88.4378 19.6708C88.4321 19.6777 88.4265 19.6846 88.4209 19.6914C88.4096 19.705 88.3983 19.7186 88.387 19.732C88.3643 19.7589 88.3414 19.7854 88.3182 19.8116C88.272 19.8638 88.2244 19.9151 88.1753 19.9653C88.0776 20.0651 87.9699 20.1648 87.8502 20.261C87.6141 20.4511 87.3019 20.6518 86.9077 20.7979C86.4964 20.9503 86.0504 21.022 85.6107 20.9941C85.1767 20.9665 84.8846 20.8506 84.7611 20.7891L89.2176 11.837Z" fill="#C7FFAD" mask="url(#path-1-inside-1_25_917)"/>
</g>
<path d="M43.9753 57.0544L40.0943 60.9184L39.4475 61.5624L41.7114 63.8163L42.3582 63.1724L46.2392 59.3084L43.9753 57.0544Z" fill="#363636" stroke="black"/>
<path d="M44.7838 53.0295L42.3582 55.4444L47.8563 60.9184L50.2819 58.5034L44.7838 53.0295Z" fill="#868686" stroke="black"/>
<path d="M33.185 63.9288C32.8914 63.6366 32.4166 63.6376 32.1243 63.9312C31.8321 64.2247 31.8331 64.6996 32.1266 64.9918L33.185 63.9288ZM38.1098 70.9487C38.4033 71.241 38.8782 71.2399 39.1705 70.9464C39.4627 70.6529 39.4617 70.178 39.1681 69.8857L38.1098 70.9487ZM32.1266 64.9918L38.1098 70.9487L39.1681 69.8857L33.185 63.9288L32.1266 64.9918Z" fill="#363636"/>
<path d="M38.0362 58.9379C37.7426 58.6456 37.2678 58.6467 36.9755 58.9402C36.6833 59.2337 36.6843 59.7086 36.9779 60.0009L38.0362 58.9379ZM42.961 65.9578C43.2545 66.25 43.7294 66.249 44.0217 65.9554C44.3139 65.6619 44.3129 65.187 44.0193 64.8948L42.961 65.9578ZM36.9779 60.0009L42.961 65.9578L44.0193 64.8948L38.0362 58.9379L36.9779 60.0009Z" fill="#363636"/>
<path d="M36.4191 60.5479C36.1256 60.2556 35.6507 60.2566 35.3585 60.5502C35.0662 60.8437 35.0673 61.3186 35.3608 61.6108L36.4191 60.5479ZM41.3439 67.5678C41.6375 67.86 42.1124 67.859 42.4046 67.5654C42.6968 67.2719 42.6958 66.797 42.4023 66.5048L41.3439 67.5678ZM35.3608 61.6108L41.3439 67.5678L42.4023 66.5048L36.4191 60.5479L35.3608 61.6108Z" fill="#363636"/>
<path d="M34.8021 62.1578C34.5085 61.8656 34.0336 61.8666 33.7414 62.1602C33.4491 62.4537 33.4502 62.9286 33.7437 63.2208L34.8021 62.1578ZM39.7269 69.1777C40.0204 69.47 40.4953 69.4689 40.7875 69.1754C41.0798 68.8819 41.0787 68.407 40.7852 68.1148L39.7269 69.1777ZM33.7437 63.2208L39.7269 69.1777L40.7852 68.1148L34.8021 62.1578L33.7437 63.2208Z" fill="#363636"/>
<path d="M20.8512 76.6962L31.3622 66.2313L36.8602 71.7052L26.3492 82.1701L20.8512 76.6962Z" fill="#363636" stroke="black"/>
<path d="M31.3622 66.2313L29.4217 64.4603H29.26L23.7619 69.9342L25.7024 71.8662L31.3622 66.2313Z" fill="#868686"/>
<path d="M29.4217 64.4603L29.7587 64.091C29.6666 64.0069 29.5464 63.9603 29.4217 63.9603V64.4603ZM31.3622 66.2313L31.7149 66.5856L32.0866 66.2156L31.6992 65.862L31.3622 66.2313ZM25.7024 71.8662L25.3496 72.2205L25.7024 72.5718L26.0552 72.2205L25.7024 71.8662ZM23.7619 69.9342L23.4092 69.5799C23.3149 69.6737 23.2619 69.8013 23.2619 69.9342C23.2619 70.0672 23.3149 70.1947 23.4092 70.2886L23.7619 69.9342ZM29.26 64.4603V63.9603C29.1277 63.9603 29.0009 64.0127 28.9072 64.106L29.26 64.4603ZM29.0846 64.8296L31.0251 66.6006L31.6992 65.862L29.7587 64.091L29.0846 64.8296ZM31.0094 65.877L25.3496 71.5119L26.0552 72.2205L31.7149 66.5856L31.0094 65.877ZM26.0552 71.5119L24.1147 69.5799L23.4092 70.2886L25.3496 72.2205L26.0552 71.5119ZM24.1147 70.2886L29.6127 64.8147L28.9072 64.106L23.4092 69.5799L24.1147 70.2886ZM29.26 64.9603H29.4217V63.9603H29.26V64.9603Z" fill="black"/>
<path d="M16 81.5261L17.8596 79.6746L19.315 81.1236L21.3363 83.1361L23.3577 85.1485L21.498 87L16 81.5261Z" fill="#C7FFAD" stroke="black"/>
<path d="M22.1449 78.3061L19.7193 75.8912L16.8085 78.7891L19.2341 81.2041L22.1449 78.3061Z" fill="#363636"/>
<path d="M19.7193 75.8912L20.072 75.5368C19.8769 75.3426 19.5616 75.3426 19.3665 75.5368L19.7193 75.8912ZM22.1449 78.3061L22.4976 78.6605L22.8535 78.3061L22.4976 77.9518L22.1449 78.3061ZM19.2341 81.2041L18.8814 81.5584L19.2341 81.9097L19.5869 81.5584L19.2341 81.2041ZM16.8085 78.7891L16.4558 78.4348C16.3615 78.5286 16.3085 78.6561 16.3085 78.7891C16.3085 78.9221 16.3615 79.0496 16.4558 79.1435L16.8085 78.7891ZM19.3665 76.2455L21.7921 78.6605L22.4976 77.9518L20.072 75.5368L19.3665 76.2455ZM21.7921 77.9518L18.8814 80.8498L19.5869 81.5584L22.4976 78.6605L21.7921 77.9518ZM19.5869 80.8498L17.1613 78.4348L16.4558 79.1435L18.8814 81.5584L19.5869 80.8498ZM17.1613 79.1435L20.072 76.2455L19.3665 75.5368L16.4558 78.4348L17.1613 79.1435Z" fill="black"/>
<path d="M24.8939 81.0431L22.1449 78.3062L19.2341 81.2041L21.9831 83.9411L24.8939 81.0431Z" fill="#868686" stroke="black"/>
<path d="M27.3195 83.4581L24.8939 81.0431L21.9832 83.9411L24.4088 86.356L27.3195 83.4581Z" fill="#363636"/>
<path d="M24.8939 81.0431L25.2467 80.6888L24.8939 80.3375L24.5411 80.6888L24.8939 81.0431ZM27.3195 83.4581L27.6723 83.8124C27.7665 83.7186 27.8195 83.591 27.8195 83.4581C27.8195 83.3251 27.7665 83.1976 27.6723 83.1037L27.3195 83.4581ZM24.4088 86.356L24.056 86.7103C24.2511 86.9046 24.5665 86.9046 24.7615 86.7103L24.4088 86.356ZM21.9832 83.9411L21.6304 83.5867L21.2745 83.9411L21.6304 84.2954L21.9832 83.9411ZM24.5411 81.3974L26.9667 83.8124L27.6723 83.1037L25.2467 80.6888L24.5411 81.3974ZM26.9667 83.1037L24.056 86.0017L24.7615 86.7103L27.6723 83.8124L26.9667 83.1037ZM24.7615 86.0017L22.3359 83.5867L21.6304 84.2954L24.056 86.7103L24.7615 86.0017ZM22.3359 84.2954L25.2467 81.3974L24.5411 80.6888L21.6304 83.5867L22.3359 84.2954Z" fill="black"/>
<g filter="url(#filter1_ddd_25_917)">
<mask id="path-18-inside-2_25_917" fill="white">
<path d="M55.0118 57.0455L57.2757 54.9614L57.5991 54.4695L19.4363 16.5098C19.4363 16.5098 18.6277 15.508 17.0107 16.313C15.3936 17.118 16.2021 18.4418 16.2021 18.4418L55.0118 57.0455Z"/>
</mask>
<path d="M55.0118 57.0455L57.2757 54.9614L57.5991 54.4695L19.4363 16.5098C19.4363 16.5098 18.6277 15.508 17.0107 16.313C15.3936 17.118 16.2021 18.4418 16.2021 18.4418L55.0118 57.0455Z" fill="#C7FFAD"/>
<path d="M57.2757 54.9614L61.4537 57.7081L61.1153 58.2229L60.6621 58.6401L57.2757 54.9614ZM55.0118 57.0455L58.3982 60.7241L54.8779 63.9646L51.4857 60.5904L55.0118 57.0455ZM16.2021 18.4418L12.676 21.9867L12.249 21.562L11.9351 21.048L16.2021 18.4418ZM19.4363 16.5098L15.9102 20.0548L15.7168 19.8624L15.5454 19.6501L19.4363 16.5098ZM57.5991 54.4695L61.1252 50.9245L64.0202 53.8041L61.7771 57.2161L57.5991 54.4695ZM17.0107 16.313L14.7824 11.837L14.7824 11.837L17.0107 16.313ZM60.6621 58.6401L58.3982 60.7241L51.6254 53.3668L53.8893 51.2828L60.6621 58.6401ZM51.4857 60.5904L12.676 21.9867L19.7282 14.8969L58.5379 53.5005L51.4857 60.5904ZM22.9624 12.9649L61.1252 50.9245L54.073 58.0144L15.9102 20.0548L22.9624 12.9649ZM61.7771 57.2161L61.4537 57.7081L53.0977 52.2148L53.4211 51.7228L61.7771 57.2161ZM16.2021 18.4418C11.9351 21.048 11.9336 21.0456 11.9321 21.0432C11.9316 21.0424 11.9302 21.0399 11.9292 21.0383C11.9272 21.035 11.9251 21.0316 11.9231 21.0283C11.919 21.0215 11.9149 21.0147 11.9107 21.0076C11.9023 20.9936 11.8936 20.979 11.8848 20.9638C11.867 20.9334 11.8482 20.9007 11.8286 20.8656C11.7895 20.7956 11.7466 20.7154 11.7015 20.6256C11.6124 20.448 11.5099 20.2228 11.4113 19.9563C11.2229 19.4467 11 18.6541 11 17.6793C11 16.6555 11.2501 15.4494 11.9886 14.2935C12.7186 13.1508 13.732 12.3599 14.7824 11.837L19.2389 20.7891C19.4808 20.6687 19.9889 20.3452 20.4157 19.6771C20.8509 18.9958 21 18.2715 21 17.6793C21 17.1361 20.8781 16.7247 20.7908 16.4885C20.7428 16.3586 20.6908 16.2431 20.6396 16.1411C20.6135 16.0891 20.5864 16.0381 20.5583 15.9879C20.5442 15.9627 20.5298 15.9375 20.515 15.9121C20.5076 15.8995 20.5 15.8868 20.4924 15.874C20.4886 15.8676 20.4848 15.8612 20.4809 15.8548C20.4789 15.8516 20.477 15.8484 20.475 15.8452C20.4741 15.8436 20.4726 15.8412 20.4721 15.8404C20.4706 15.838 20.4692 15.8355 16.2021 18.4418ZM14.7824 11.837C16.7609 10.8521 18.8011 10.7666 20.5674 11.4212C21.3659 11.7171 21.9813 12.118 22.4196 12.4707C22.6403 12.6483 22.8238 12.8199 22.972 12.9713C23.0465 13.0474 23.113 13.1194 23.1718 13.186C23.2013 13.2193 23.2289 13.2513 23.2548 13.2819C23.2677 13.2972 23.2802 13.3122 23.2922 13.3268C23.2983 13.3341 23.3042 13.3413 23.31 13.3485C23.3129 13.352 23.3158 13.3556 23.3186 13.3591C23.3201 13.3608 23.3222 13.3635 23.3229 13.3643C23.325 13.367 23.3271 13.3696 19.4363 16.5098C15.5454 19.6501 15.5475 19.6527 15.5496 19.6553C15.5503 19.6561 15.5524 19.6587 15.5538 19.6605C15.5566 19.6639 15.5594 19.6674 15.5622 19.6708C15.5679 19.6777 15.5735 19.6846 15.5791 19.6914C15.5904 19.705 15.6017 19.7186 15.613 19.732C15.6357 19.7589 15.6586 19.7854 15.6818 19.8116C15.728 19.8638 15.7756 19.9151 15.8247 19.9653C15.9224 20.0651 16.0301 20.1648 16.1498 20.261C16.3859 20.4511 16.6981 20.6518 17.0923 20.7979C17.5036 20.9503 17.9496 21.022 18.3893 20.9941C18.8233 20.9665 19.1154 20.8506 19.2389 20.7891L14.7824 11.837Z" fill="#C7FFAD" mask="url(#path-18-inside-2_25_917)"/>
</g>
<path d="M60.0247 57.0544L63.9057 60.9184L64.5525 61.5624L62.2886 63.8163L61.6418 63.1724L57.7608 59.3084L60.0247 57.0544Z" fill="#363636" stroke="black"/>
<path d="M59.2162 53.0295L61.6418 55.4444L56.1437 60.9184L53.7181 58.5034L59.2162 53.0295Z" fill="#868686" stroke="black"/>
<path d="M70.815 63.9288C71.1086 63.6366 71.5834 63.6376 71.8757 63.9312C72.1679 64.2247 72.1669 64.6996 71.8734 64.9918L70.815 63.9288ZM65.8902 70.9487C65.5967 71.241 65.1218 71.2399 64.8295 70.9464C64.5373 70.6529 64.5383 70.178 64.8319 69.8857L65.8902 70.9487ZM71.8734 64.9918L65.8902 70.9487L64.8319 69.8857L70.815 63.9288L71.8734 64.9918Z" fill="#353935"/>
<path d="M65.9638 58.9379C66.2574 58.6456 66.7322 58.6467 67.0245 58.9402C67.3167 59.2337 67.3157 59.7086 67.0221 60.0009L65.9638 58.9379ZM61.039 65.9578C60.7455 66.25 60.2706 66.249 59.9783 65.9554C59.6861 65.6619 59.6871 65.187 59.9807 64.8948L61.039 65.9578ZM67.0221 60.0009L61.039 65.9578L59.9807 64.8948L65.9638 58.9379L67.0221 60.0009Z" fill="#353935"/>
<path d="M67.5809 60.5479C67.8744 60.2556 68.3493 60.2566 68.6415 60.5502C68.9338 60.8437 68.9327 61.3186 68.6392 61.6108L67.5809 60.5479ZM62.6561 67.5678C62.3625 67.86 61.8876 67.859 61.5954 67.5654C61.3031 67.2719 61.3042 66.797 61.5977 66.5048L62.6561 67.5678ZM68.6392 61.6108L62.6561 67.5678L61.5977 66.5048L67.5809 60.5479L68.6392 61.6108Z" fill="#353935"/>
<path d="M69.1979 62.1578C69.4915 61.8656 69.9664 61.8666 70.2586 62.1602C70.5509 62.4537 70.5498 62.9286 70.2563 63.2208L69.1979 62.1578ZM64.2731 69.1777C63.9796 69.47 63.5047 69.4689 63.2125 69.1754C62.9202 68.8819 62.9213 68.407 63.2148 68.1148L64.2731 69.1777ZM70.2563 63.2208L64.2731 69.1777L63.2148 68.1148L69.1979 62.1578L70.2563 63.2208Z" fill="#353935"/>
<path d="M83.1488 76.6962L72.6379 66.2313L67.1398 71.7052L77.6508 82.1701L83.1488 76.6962Z" fill="#363636" stroke="black"/>
<path d="M72.6378 66.2313L74.5783 64.4603H74.74L80.2381 69.9342L78.2976 71.8662L72.6378 66.2313Z" fill="#868686"/>
<path d="M74.5783 64.4603L74.2413 64.091C74.3334 64.0069 74.4536 63.9603 74.5783 63.9603V64.4603ZM72.6378 66.2313L72.2851 66.5856L71.9134 66.2156L72.3008 65.862L72.6378 66.2313ZM78.2976 71.8662L78.6504 72.2205L78.2976 72.5718L77.9448 72.2205L78.2976 71.8662ZM80.2381 69.9342L80.5908 69.5799C80.6851 69.6737 80.7381 69.8013 80.7381 69.9342C80.7381 70.0672 80.6851 70.1947 80.5908 70.2886L80.2381 69.9342ZM74.74 64.4603V63.9603C74.8723 63.9603 74.9991 64.0127 75.0928 64.106L74.74 64.4603ZM74.9154 64.8296L72.9749 66.6006L72.3008 65.862L74.2413 64.091L74.9154 64.8296ZM72.9906 65.877L78.6504 71.5119L77.9448 72.2205L72.2851 66.5856L72.9906 65.877ZM77.9448 71.5119L79.8853 69.5799L80.5908 70.2886L78.6504 72.2205L77.9448 71.5119ZM79.8853 70.2886L74.3873 64.8147L75.0928 64.106L80.5908 69.5799L79.8853 70.2886ZM74.74 64.9603H74.5783V63.9603H74.74V64.9603Z" fill="black"/>
<path d="M88 81.5261L86.1404 79.6746L84.685 81.1236L82.6637 83.1361L80.6423 85.1485L82.502 87L88 81.5261Z" fill="#C7FFAD" stroke="black"/>
<path d="M81.8551 78.3061L84.2807 75.8912L87.1915 78.7891L84.7659 81.2041L81.8551 78.3061Z" fill="#363636"/>
<path d="M84.2807 75.8912L83.928 75.5368C84.123 75.3426 84.4384 75.3426 84.6335 75.5368L84.2807 75.8912ZM81.8551 78.3061L81.5024 78.6605L81.1465 78.3061L81.5024 77.9518L81.8551 78.3061ZM84.7659 81.2041L85.1186 81.5584L84.7659 81.9097L84.4131 81.5584L84.7659 81.2041ZM87.1915 78.7891L87.5442 78.4348C87.6385 78.5286 87.6915 78.6561 87.6915 78.7891C87.6915 78.9221 87.6385 79.0496 87.5442 79.1435L87.1915 78.7891ZM84.6335 76.2455L82.2079 78.6605L81.5024 77.9518L83.928 75.5368L84.6335 76.2455ZM82.2079 77.9518L85.1186 80.8498L84.4131 81.5584L81.5024 78.6605L82.2079 77.9518ZM84.4131 80.8498L86.8387 78.4348L87.5442 79.1435L85.1186 81.5584L84.4131 80.8498ZM86.8387 79.1435L83.928 76.2455L84.6335 75.5368L87.5442 78.4348L86.8387 79.1435Z" fill="black"/>
<path d="M79.1061 81.0431L81.8551 78.3062L84.7659 81.2041L82.0169 83.9411L79.1061 81.0431Z" fill="#868686" stroke="black"/>
<path d="M76.6805 83.4581L79.1061 81.0431L82.0168 83.9411L79.5912 86.356L76.6805 83.4581Z" fill="#363636"/>
<path d="M79.1061 81.0431L78.7533 80.6888L79.1061 80.3375L79.4589 80.6888L79.1061 81.0431ZM76.6805 83.4581L76.3277 83.8124C76.2335 83.7186 76.1805 83.591 76.1805 83.4581C76.1805 83.3251 76.2335 83.1976 76.3277 83.1037L76.6805 83.4581ZM79.5912 86.356L79.944 86.7103C79.7489 86.9046 79.4335 86.9046 79.2385 86.7103L79.5912 86.356ZM82.0168 83.9411L82.3696 83.5867L82.7255 83.9411L82.3696 84.2954L82.0168 83.9411ZM79.4589 81.3974L77.0333 83.8124L76.3277 83.1037L78.7533 80.6888L79.4589 81.3974ZM77.0333 83.1037L79.944 86.0017L79.2385 86.7103L76.3277 83.8124L77.0333 83.1037ZM79.2385 86.0017L81.6641 83.5867L82.3696 84.2954L79.944 86.7103L79.2385 86.0017ZM81.6641 84.2954L78.7533 81.3974L79.4589 80.6888L82.3696 83.5867L81.6641 84.2954Z" fill="black"/>
<defs>
<filter id="filter0_ddd_25_917" x="30.4009" y="0" width="73.5991" height="73.0455" filterUnits="userSpaceOnUse" color-interpolation-filters="sRGB">
<feFlood flood-opacity="0" result="BackgroundImageFix"/>
<feColorMatrix in="SourceAlpha" type="matrix" values="0 0 0 0 0 0 0 0 0 0 0 0 0 0 0 0 0 0 127 0" result="hardAlpha"/>
<feOffset/>
<feGaussianBlur stdDeviation="8"/>
<feComposite in2="hardAlpha" operator="out"/>
<feColorMatrix type="matrix" values="0 0 0 0 0.0784314 0 0 0 0 1 0 0 0 0 0 0 0 0 1 0"/>
<feBlend mode="normal" in2="BackgroundImageFix" result="effect1_dropShadow_25_917"/>
<feColorMatrix in="SourceAlpha" type="matrix" values="0 0 0 0 0 0 0 0 0 0 0 0 0 0 0 0 0 0 127 0" result="hardAlpha"/>
<feOffset dx="-1" dy="1"/>
<feGaussianBlur stdDeviation="3"/>
<feComposite in2="hardAlpha" operator="out"/>
<feColorMatrix type="matrix" values="0 0 0 0 0.0784314 0 0 0 0 1 0 0 0 0 0 0 0 0 1 0"/>
<feBlend mode="normal" in2="effect1_dropShadow_25_917" result="effect2_dropShadow_25_917"/>
<feColorMatrix in="SourceAlpha" type="matrix" values="0 0 0 0 0 0 0 0 0 0 0 0 0 0 0 0 0 0 127 0" result="hardAlpha"/>
<feOffset dx="3" dy="-3"/>
<feGaussianBlur stdDeviation="5.5"/>
<feComposite in2="hardAlpha" operator="out"/>
<feColorMatrix type="matrix" values="0 0 0 0 0.08 0 0 0 0 1 0 0 0 0 0 0 0 0 1 0"/>
<feBlend mode="normal" in2="effect2_dropShadow_25_917" result="effect3_dropShadow_25_917"/>
<feBlend mode="normal" in="SourceGraphic" in2="effect3_dropShadow_25_917" result="shape"/>
</filter>
<filter id="filter1_ddd_25_917" x="0" y="0" width="73.5991" height="73.0455" filterUnits="userSpaceOnUse" color-interpolation-filters="sRGB">
<feFlood flood-opacity="0" result="BackgroundImageFix"/>
<feColorMatrix in="SourceAlpha" type="matrix" values="0 0 0 0 0 0 0 0 0 0 0 0 0 0 0 0 0 0 127 0" result="hardAlpha"/>
<feOffset/>
<feGaussianBlur stdDeviation="8"/>
<feComposite in2="hardAlpha" operator="out"/>
<feColorMatrix type="matrix" values="0 0 0 0 0.0784314 0 0 0 0 1 0 0 0 0 0 0 0 0 1 0"/>
<feBlend mode="normal" in2="BackgroundImageFix" result="effect1_dropShadow_25_917"/>
<feColorMatrix in="SourceAlpha" type="matrix" values="0 0 0 0 0 0 0 0 0 0 0 0 0 0 0 0 0 0 127 0" result="hardAlpha"/>
<feOffset dx="-1" dy="1"/>
<feGaussianBlur stdDeviation="3"/>
<feComposite in2="hardAlpha" operator="out"/>
<feColorMatrix type="matrix" values="0 0 0 0 0.0784314 0 0 0 0 1 0 0 0 0 0 0 0 0 1 0"/>
<feBlend mode="normal" in2="effect1_dropShadow_25_917" result="effect2_dropShadow_25_917"/>
<feColorMatrix in="SourceAlpha" type="matrix" values="0 0 0 0 0 0 0 0 0 0 0 0 0 0 0 0 0 0 127 0" result="hardAlpha"/>
<feOffset dx="3" dy="-3"/>
<feGaussianBlur stdDeviation="5.5"/>
<feComposite in2="hardAlpha" operator="out"/>
<feColorMatrix type="matrix" values="0 0 0 0 0.08 0 0 0 0 1 0 0 0 0 0 0 0 0 1 0"/>
<feBlend mode="normal" in2="effect2_dropShadow_25_917" result="effect3_dropShadow_25_917"/>
<feBlend mode="normal" in="SourceGraphic" in2="effect3_dropShadow_25_917" result="shape"/>
</filter>
</defs>
</svg>
