<svg width="85" height="47" viewBox="0 0 85 47" fill="none" xmlns="http://www.w3.org/2000/svg">
<path d="M41.3743 8.78363L40.409 9.74887L39.4438 23.2622L37.5133 26.1579L39.4438 27.968H50.0614L51.9918 26.1579V15.5403L58.1678 14.575L58.1677 10.5938L41.3743 8.78363Z" fill="#363636"/>
<path d="M72.7619 8.78363L67.4356 8.78363L64.5399 11.6793L58.7485 9.74887L57.7832 14.575L51.9918 15.5403L51.0266 27.1231H55.8528L53.8277 22.8746C53.8277 22.8746 55.8528 18.436 57.7832 18.436C59.7137 18.436 62.6094 18.436 62.6094 18.436C62.6094 18.436 64.54 20.3665 65.5052 21.3317C66.4705 22.2969 68.4009 21.3317 68.4009 21.3317L67.4356 15.5403L67.4358 11.7932L77.0881 11.6793L78.3985 7.09601H74.1923L72.7619 8.78363Z" fill="#868686"/>
<path d="M63.8285 27.4569L63.9968 27.7638L63.9182 27.8069H63.8285V27.4569ZM64.0753 19.6262L64.2823 19.3439L64.0753 19.6262ZM55.4172 20.3664L55.1545 20.1351L55.4172 20.3664ZM58.68 26.7799C58.8695 26.742 59.0539 26.8649 59.0918 27.0544C59.1297 27.244 59.0068 27.4284 58.8172 27.4663L58.68 26.7799ZM49.8162 27.1069H63.8285V27.8069H49.8162V27.1069ZM63.6602 27.15C64.8488 26.4982 65.7455 25.2987 65.927 23.9713C66.1055 22.6662 65.6001 21.1784 63.8683 19.9084L64.2823 19.3439C66.1924 20.7447 66.8385 22.4731 66.6206 24.0662C66.4057 25.6369 65.358 27.0173 63.9968 27.7638L63.6602 27.15ZM63.8683 19.9084C62.548 18.9402 60.9358 18.6162 59.4265 18.7879C57.9131 18.9601 56.5349 19.6268 55.6799 20.5978L55.1545 20.1351C56.144 19.0116 57.6935 18.2806 59.3474 18.0924C61.0054 17.9038 62.8 18.2569 64.2823 19.3439L63.8683 19.9084ZM55.6799 20.5978C54.5683 21.8599 54.2304 23.6583 54.7109 25.0013C54.9485 25.6652 55.3828 26.2123 56.0193 26.5438C56.6573 26.8761 57.5325 27.0094 58.68 26.7799L58.8172 27.4663C57.5516 27.7194 56.5066 27.5869 55.696 27.1647C54.8839 26.7417 54.3411 26.0456 54.0519 25.2372C53.4788 23.6356 53.8882 21.573 55.1545 20.1351L55.6799 20.5978Z" fill="black"/>
<path d="M60.6792 18.9075C60.4721 18.9075 60.3042 18.7396 60.3042 18.5325C60.3042 18.3254 60.4721 18.1575 60.6792 18.1575V18.9075ZM59.7139 24.6989C59.5068 24.6989 59.3389 24.531 59.3389 24.3239C59.3389 24.1168 59.5068 23.9489 59.7139 23.9489V24.6989ZM60.6792 18.1575C61.3645 18.1575 61.886 18.6658 62.2135 19.2553C62.5495 19.86 62.7433 20.6479 62.7433 21.4282C62.7433 22.2076 62.5494 23.0214 62.0611 23.6493C61.5616 24.2914 60.7845 24.6989 59.7139 24.6989V23.9489C60.5738 23.9489 61.1239 23.6325 61.4691 23.1888C61.8253 22.7308 61.9933 22.0967 61.9933 21.4282C61.9933 20.7607 61.8252 20.1007 61.5579 19.6196C61.2821 19.1231 60.9591 18.9075 60.6792 18.9075V18.1575Z" fill="black"/>
<rect width="7.72188" height="5.79141" transform="matrix(-1 0 0 1 73.2272 3.95746)" fill="#363636"/>
<path d="M66.6665 4.21875H73.5755V9.15379H66.6665" stroke="black" stroke-width="0.75"/>
<path d="M74.069 6.43951H78.2637V9.40053L76.2897 12.6083" stroke="black" stroke-width="0.75"/>
<path d="M66.4019 2.02715V2.00493L66.4045 1.98287C66.4595 1.52029 66.2885 1.15079 65.9882 0.876956C65.6791 0.595085 65.2293 0.414751 64.7587 0.380797C64.2885 0.346869 63.836 0.461361 63.5093 0.718533C63.1938 0.966896 62.9571 1.37775 62.9571 2.02715V10.3097C62.9571 10.7582 63.1554 11.095 63.4654 11.3323C63.7846 11.5765 64.2278 11.7165 64.6867 11.7253C65.1458 11.7341 65.5832 11.6109 65.896 11.3755C66.1971 11.1489 66.4019 10.8062 66.4019 10.3097L66.4019 2.02715Z" fill="#868686" stroke="black" stroke-width="0.75"/>
<path d="M40.7844 9.33923L63.0838 11.0103V1.94853L40.7844 3.61958V9.33923Z" fill="#868686" stroke="black" stroke-width="0.75"/>
<path d="M40.2206 9.6908V23.0154C38.2466 23.0154 37.2596 27.4569 40.2206 27.4569C44.1686 27.4569 48.8569 27.4569 51.5712 27.4569V15.8596L58.2335 14.3791V9.6908" stroke="black" stroke-width="0.75"/>
<path d="M14.6769 8.11153V3.62078L0.375092 2.4485V9.28381L14.6769 8.11153Z" fill="#868686" stroke="black" stroke-width="0.75"/>
<path d="M67.0416 11.3787V21.4857H75.7193C78.5946 20.2267 79.5664 16.7169 78.5447 14.1011C78.0568 12.8522 77.1209 11.8338 75.7375 11.3787H67.0416Z" fill="#868686" stroke="black" stroke-width="0.75"/>
<path d="M78.0534 14.0924H71.1444" stroke="black" stroke-width="0.75" stroke-linecap="round" stroke-linejoin="round"/>
<path d="M78.0534 18.5339H71.1444" stroke="black" stroke-width="0.75" stroke-linecap="round" stroke-linejoin="round"/>
<path d="M81.6027 45.3244C83.9723 44.053 85.4813 40.8677 84.0935 37.734L75.5649 20.7415H68.1479L73.9285 41.3917C75.0096 43.7214 76.3642 45.0016 77.7052 45.555C79.0476 46.109 80.426 45.9558 81.6027 45.3244Z" fill="#8C4C4C" stroke="black" stroke-width="0.75"/>
<path d="M43.5566 17.8336C43.5566 19.1255 44.6039 20.1729 45.8958 20.1729C47.1878 20.1729 48.2351 19.1255 48.2351 17.8336C48.2351 16.5417 47.1878 15.4943 45.8958 15.4943C44.6039 15.4943 43.5566 16.5417 43.5566 17.8336Z" stroke="black" stroke-width="0.75"/>
<rect x="-0.275" y="0.275" width="6.35905" height="6.35905" transform="matrix(-1 0 0 1 40.2076 2.99225)" fill="#363636" stroke="black" stroke-width="0.55"/>
<rect x="-0.375" y="0.375" width="8.13306" height="2.70452" transform="matrix(-1 0 0 1 33.8678 4.26227)" fill="#868686" stroke="black" stroke-width="0.75"/>
<rect x="-0.375" y="0.375" width="4.18504" height="7.63956" transform="matrix(-1 0 0 1 26.146 1.79474)" fill="#868686" stroke="black" stroke-width="0.75"/>
<rect x="-0.375" y="0.375" width="4.18504" height="7.63956" transform="matrix(-1 0 0 1 22.1979 1.79474)" fill="#868686" stroke="black" stroke-width="0.75"/>
<rect x="-0.375" y="0.375" width="3.19803" height="6.15905" transform="matrix(-1 0 0 1 18.2498 2.28827)" fill="#868686" stroke="black" stroke-width="0.75"/>
</svg>
