<svg width="54" height="63" viewBox="0 0 54 63" fill="none" xmlns="http://www.w3.org/2000/svg">
<path d="M27 46C32.154 46 36.5 42.0603 36.5 37C36.5 31.9397 32.154 28 27 28C21.846 28 17.5 31.9397 17.5 37C17.5 42.0603 21.846 46 27 46Z" stroke="#F6DE00" stroke-width="3"/>
<path d="M27 61C40.9906 61 52.5 50.3446 52.5 37C52.5 23.6554 40.9906 13 27 13C13.0094 13 1.5 23.6554 1.5 37C1.5 50.3446 13.0094 61 27 61Z" stroke="#F6DE00" stroke-width="3"/>
<path d="M46.5 8.5L40.5 2L21.5 10L46.5 8.5Z" stroke="#F6DE00" stroke-width="3"/>
</svg>
