<svg width="245" height="51" viewBox="0 0 245 51" fill="none" xmlns="http://www.w3.org/2000/svg">
<path d="M2 17V2H39C59 14 49 31.5 39 35H19V49H2V24H31C35 24 35 17 31 17H2Z" stroke="#F6DE00" stroke-width="3" stroke-linejoin="round"/>
<path d="M65 48.5H47L60 2H87L99.5 48.5H81.5L79.5 42.5H67L65 48.5Z" stroke="#F6DE00" stroke-width="3"/>
<path d="M69.5 30.5L73 18L76.5 30.5H69.5Z" stroke="#F6DE00" stroke-width="3"/>
<path d="M117 49V35H135.5C158.3 21.4 145 7.33333 135.5 2H99V49H117Z" stroke="#F6DE00" stroke-width="3"/>
<path d="M117 22.5V15H128.5C132.5 15 132.5 22.5 128.5 22.5H117Z" stroke="#F6DE00" stroke-width="3"/>
<path d="M196 2H151V49H196V34.5H167.5V31H184.5V20.5H167.5V17H196V2Z" stroke="#F6DE00" stroke-width="3" stroke-linejoin="round"/>
<path d="M201 49V3H218.5V35H243.5V49H201Z" stroke="#F6DE00" stroke-width="3"/>
</svg>
