<svg width="257" height="53" viewBox="0 0 257 53" fill="none" xmlns="http://www.w3.org/2000/svg">
<path d="M2 17V2H39C59 14 49 32 39 35.5H19V51.5H2V24H31C35 24 35 17 31 17H2Z" stroke="#F6DE00" stroke-width="3" stroke-linejoin="round"/>
<path d="M67 51.5H49L63.5 2H88L101.5 51.5H83.5L81.5 45H69L67 51.5Z" stroke="#F6DE00" stroke-width="3"/>
<path d="M70 31.5L75 17.5L80 31.5H70Z" stroke="#F6DE00" stroke-width="3"/>
<path d="M104 17V2H141C161 14 151 32 141 35.5H121V51.5H104V24H133C137 24 137 17 133 17H104Z" stroke="#F6DE00" stroke-width="3" stroke-linejoin="round"/>
<path d="M196.5 2H156V51.5H201V36H172.5V32.5H189.5V22H172.5V18.5H196.5V2Z" stroke="#F6DE00" stroke-width="3" stroke-linejoin="round"/>
<path d="M203 2V51.5H220.5C220.5 46.3333 220.7 36.5 221.5 38.5C222.3 40.5 231.833 48 236.5 51.5H255V37C255 37 240.191 37.0885 243 35C262.5 20.5 247.5 5.66667 238 2H203Z" stroke="#F6DE00" stroke-width="3" stroke-linejoin="round"/>
<path d="M220 25V17.5H233.5C236 17.5 236 25 233.5 25H220Z" stroke="#F6DE00" stroke-width="3" stroke-linejoin="round"/>
</svg>
