<svg width="285" height="51" viewBox="0 0 285 51" fill="none" xmlns="http://www.w3.org/2000/svg">
<path d="M2 17V2H39C59 14 49 31.5 39 35H19V49H2V24H31C35 24 35 17 31 17H2Z" stroke="#F6DE00" stroke-width="3" stroke-linejoin="round"/>
<path d="M55.5 49V2H70.5V49H55.5Z" stroke="#F6DE00" stroke-width="3" stroke-linejoin="round"/>
<path d="M120 2H75V49H120V34.5H91.5V31H108.5V20.5H91.5V17H120V2Z" stroke="#F6DE00" stroke-width="3" stroke-linejoin="round"/>
<path d="M123.5 2V0.5C122.672 0.5 122 1.17157 122 2L123.5 2ZM123.5 48.5H122C122 49.3284 122.672 50 123.5 50V48.5ZM153.5 48.5V50C153.685 50 153.869 49.9657 154.041 49.8989L153.5 48.5ZM153.5 2L154.196 0.671253C153.981 0.558762 153.742 0.5 153.5 0.5V2ZM122 2V48.5H125V2H122ZM123.5 50H153.5V47H123.5V50ZM154.041 49.8989C162.151 46.7597 170.454 38.92 172.588 29.5195C173.667 24.7646 173.154 19.6417 170.268 14.6339C167.398 9.65239 162.239 4.88445 154.196 0.671253L152.804 3.32875C160.511 7.36555 165.165 11.7851 167.669 16.1317C170.159 20.452 170.583 24.7979 169.662 28.8555C167.796 37.08 160.349 44.2403 152.959 47.1011L154.041 49.8989ZM153.5 0.5H123.5V3.5H153.5V0.5Z" fill="#F6DE00"/>
<path d="M139 16.5V15C138.172 15 137.5 15.6716 137.5 16.5H139ZM139 33.5H137.5C137.5 34.3284 138.172 35 139 35V33.5ZM150.224 33.5V35C150.406 35 150.586 34.9671 150.755 34.903L150.224 33.5ZM150.224 16.5L150.908 15.1647C150.696 15.0565 150.462 15 150.224 15V16.5ZM137.5 16.5V33.5H140.5V16.5H137.5ZM139 35H150.224V32H139V35ZM150.755 34.903C154.005 33.6739 157.392 30.5998 158.28 26.7789C158.737 24.8106 158.514 22.683 157.304 20.6307C156.111 18.6076 154.02 16.7574 150.908 15.1647L149.541 17.8353C152.322 19.2587 153.902 20.7674 154.72 22.1546C155.521 23.5125 155.649 24.8467 155.358 26.1002C154.749 28.7228 152.244 31.1326 149.694 32.097L150.755 34.903ZM150.224 15H139V18H150.224V15Z" fill="#F6DE00"/>
<path d="M175 2V49H192.5C192.5 43.8333 192.7 34 193.5 36C194.3 38 203.833 45.5 208.5 49H227V34.5C227 34.5 212.191 34.5885 215 32.5C234.5 18 219.5 5.66667 210 2H175Z" stroke="#F6DE00" stroke-width="3" stroke-linejoin="round"/>
<path d="M192 22.5V15H205.5C208 15 208 22.5 205.5 22.5H192Z" stroke="#F6DE00" stroke-width="3" stroke-linejoin="round"/>
<path d="M248 48.5H230L243 2H270L282.5 48.5H264.5L262.5 42.5H250L248 48.5Z" stroke="#F6DE00" stroke-width="3"/>
<path d="M252.5 30.5L256 18L259.5 30.5H252.5Z" stroke="#F6DE00" stroke-width="3"/>
</svg>
