<svg width="109" height="88" viewBox="0 0 109 88" fill="none" xmlns="http://www.w3.org/2000/svg">
<path d="M29.9883 74.3761L40.6973 63.6671L44.5333 67.5032L33.8244 78.2121L29.9883 74.3761Z" fill="#868686" stroke="black"/>
<g filter="url(#filter0_ddd_25_918)">
<path d="M50.607 60.4704L47.2505 59.5114L46.771 59.1917L84.4921 21.5061C84.4921 21.5061 85.2913 20.5116 86.8896 21.3108C88.488 22.11 87.6888 23.4242 87.6888 23.4242L50.607 60.4704Z" fill="#FFA4A4"/>
</g>
<path d="M21.9966 82.0482C19.4392 83.9662 22.1564 88.9211 26.1523 86.2039L21.9966 82.0482Z" fill="#FF8585" stroke="black"/>
<path d="M38.5855 68.496C38.7808 68.6913 39.0974 68.6913 39.2926 68.496C39.4879 68.3007 39.4879 67.9842 39.2926 67.7889L38.5855 68.496ZM37.3068 67.2173L38.5855 68.496L39.2926 67.7889L38.014 66.5102L37.3068 67.2173Z" fill="black"/>
<path d="M40.5036 66.578C40.6988 66.7733 41.0154 66.7733 41.2107 66.578C41.4059 66.3828 41.4059 66.0662 41.2107 65.8709L40.5036 66.578ZM39.2249 65.2994L40.5036 66.578L41.2107 65.8709L39.932 64.5922L39.2249 65.2994Z" fill="black"/>
<path d="M34.4637 78.8515L33.8244 78.2121L29.1891 73.5769L21.3572 81.4088L26.6318 86.6834L34.4637 78.8515Z" fill="#363636" stroke="black"/>
<path d="M30.4678 75.0154L22.7957 82.6875" stroke="black"/>
<path d="M31.7465 76.2941L24.0744 83.9662M33.185 77.5727L25.3531 85.4047" stroke="black"/>
<path d="M40.6973 63.6671L39.8981 62.8679L42.4555 60.3105L43.0948 60.9499L45.1727 59.0319L51.4062 60.9499L47.2505 65.1056L47.73 65.5851L45.1727 68.1425L40.6973 63.6671Z" fill="#363636"/>
<path d="M43.0948 60.9499L42.4555 60.3105L39.8981 62.8679L40.6973 63.6671L45.1727 68.1425L47.73 65.5851L47.2505 65.1056M43.0948 60.9499L45.1727 59.0319L51.4062 60.9499L47.2505 65.1056M43.0948 60.9499L47.2505 65.1056" stroke="black"/>
<path d="M44.6931 69.9007L43.5743 68.7818L43.4145 68.622L41.3366 70.6999L42.6153 71.9785L44.6931 69.9007Z" fill="#C4C4C4" stroke="black"/>
<path d="M33.5047 67.2512L35.0353 68.7818L31.9063 71.9108L30.3757 70.3802L33.5047 67.2512Z" fill="#868686" stroke="black"/>
<path d="M39.4186 72.6178L35.5825 68.9416V68.7818L31.9063 72.458L35.7424 76.2941L39.4186 72.6178Z" fill="#363636" stroke="black"/>
<path d="M78.9003 74.3761L68.1913 63.6671L64.3553 67.5032L75.0643 78.2121L78.9003 74.3761Z" fill="#868686" stroke="black"/>
<g filter="url(#filter1_ddd_25_918)">
<path d="M58.2816 60.4704L61.6381 59.5114L62.1176 59.1917L24.3965 21.5061C24.3965 21.5061 23.5973 20.5116 21.999 21.3108C20.4006 22.11 21.1998 23.4242 21.1998 23.4242L58.2816 60.4704Z" fill="#FFA4A4"/>
</g>
<path d="M86.8921 82.0482C89.4494 83.9662 86.7322 88.9211 82.7363 86.2039L86.8921 82.0482Z" fill="#FF8585" stroke="black"/>
<path d="M70.3031 68.496C70.1078 68.6913 69.7912 68.6913 69.596 68.496C69.4007 68.3007 69.4007 67.9842 69.596 67.7889L70.3031 68.496ZM71.5818 67.2173L70.3031 68.496L69.596 67.7889L70.8747 66.5102L71.5818 67.2173Z" fill="black"/>
<path d="M68.3851 66.578C68.1898 66.7733 67.8732 66.7733 67.678 66.578C67.4827 66.3828 67.4827 66.0662 67.678 65.8709L68.3851 66.578ZM69.6637 65.2994L68.3851 66.578L67.678 65.8709L68.9566 64.5922L69.6637 65.2994Z" fill="black"/>
<path d="M74.4249 78.8515L75.0643 78.2121L79.6995 73.5769L87.5314 81.4088L82.2568 86.6834L74.4249 78.8515Z" fill="#363636" stroke="black"/>
<path d="M78.4208 75.0154L86.0929 82.6875" stroke="black"/>
<path d="M77.1421 76.2941L84.8142 83.9662M75.7036 77.5727L83.5355 85.4047" stroke="black"/>
<path d="M68.1913 63.6671L68.9905 62.8679L66.4332 60.3105L65.7938 60.9499L63.716 59.0319L57.4824 60.9499L61.6381 65.1056L61.1586 65.5851L63.716 68.1425L68.1913 63.6671Z" fill="#363636"/>
<path d="M65.7938 60.9499L66.4332 60.3105L68.9905 62.8679L68.1913 63.6671L63.716 68.1425L61.1586 65.5851L61.6381 65.1056M65.7938 60.9499L63.716 59.0319L57.4824 60.9499L61.6381 65.1056M65.7938 60.9499L61.6381 65.1056" stroke="black"/>
<path d="M64.1955 69.9007L65.3143 68.7818L65.4741 68.622L67.552 70.6999L66.2733 71.9785L64.1955 69.9007Z" fill="#C4C4C4" stroke="black"/>
<path d="M75.3839 67.2512L73.8533 68.7818L76.9823 71.9108L78.5129 70.3802L75.3839 67.2512Z" fill="#868686" stroke="black"/>
<path d="M69.47 72.6178L73.3061 68.9416V68.7818L76.9823 72.458L73.1462 76.2941L69.47 72.6178Z" fill="#363636" stroke="black"/>
<defs>
<filter id="filter0_ddd_25_918" x="25.771" y="0" width="83.1176" height="81.4704" filterUnits="userSpaceOnUse" color-interpolation-filters="sRGB">
<feFlood flood-opacity="0" result="BackgroundImageFix"/>
<feColorMatrix in="SourceAlpha" type="matrix" values="0 0 0 0 0 0 0 0 0 0 0 0 0 0 0 0 0 0 127 0" result="hardAlpha"/>
<feOffset/>
<feGaussianBlur stdDeviation="10.5"/>
<feComposite in2="hardAlpha" operator="out"/>
<feColorMatrix type="matrix" values="0 0 0 0 1 0 0 0 0 0 0 0 0 0 0 0 0 0 1 0"/>
<feBlend mode="normal" in2="BackgroundImageFix" result="effect1_dropShadow_25_918"/>
<feColorMatrix in="SourceAlpha" type="matrix" values="0 0 0 0 0 0 0 0 0 0 0 0 0 0 0 0 0 0 127 0" result="hardAlpha"/>
<feOffset dx="-1" dy="1"/>
<feGaussianBlur stdDeviation="3.5"/>
<feComposite in2="hardAlpha" operator="out"/>
<feColorMatrix type="matrix" values="0 0 0 0 1 0 0 0 0 0 0 0 0 0 0 0 0 0 1 0"/>
<feBlend mode="normal" in2="effect1_dropShadow_25_918" result="effect2_dropShadow_25_918"/>
<feColorMatrix in="SourceAlpha" type="matrix" values="0 0 0 0 0 0 0 0 0 0 0 0 0 0 0 0 0 0 127 0" result="hardAlpha"/>
<feOffset dx="3" dy="-3"/>
<feGaussianBlur stdDeviation="7.5"/>
<feComposite in2="hardAlpha" operator="out"/>
<feColorMatrix type="matrix" values="0 0 0 0 1 0 0 0 0 0 0 0 0 0 0 0 0 0 1 0"/>
<feBlend mode="normal" in2="effect2_dropShadow_25_918" result="effect3_dropShadow_25_918"/>
<feBlend mode="normal" in="SourceGraphic" in2="effect3_dropShadow_25_918" result="shape"/>
</filter>
<filter id="filter1_ddd_25_918" x="0" y="0" width="83.1176" height="81.4704" filterUnits="userSpaceOnUse" color-interpolation-filters="sRGB">
<feFlood flood-opacity="0" result="BackgroundImageFix"/>
<feColorMatrix in="SourceAlpha" type="matrix" values="0 0 0 0 0 0 0 0 0 0 0 0 0 0 0 0 0 0 127 0" result="hardAlpha"/>
<feOffset/>
<feGaussianBlur stdDeviation="10.5"/>
<feComposite in2="hardAlpha" operator="out"/>
<feColorMatrix type="matrix" values="0 0 0 0 1 0 0 0 0 0 0 0 0 0 0 0 0 0 1 0"/>
<feBlend mode="normal" in2="BackgroundImageFix" result="effect1_dropShadow_25_918"/>
<feColorMatrix in="SourceAlpha" type="matrix" values="0 0 0 0 0 0 0 0 0 0 0 0 0 0 0 0 0 0 127 0" result="hardAlpha"/>
<feOffset dx="-1" dy="1"/>
<feGaussianBlur stdDeviation="3.5"/>
<feComposite in2="hardAlpha" operator="out"/>
<feColorMatrix type="matrix" values="0 0 0 0 1 0 0 0 0 0 0 0 0 0 0 0 0 0 1 0"/>
<feBlend mode="normal" in2="effect1_dropShadow_25_918" result="effect2_dropShadow_25_918"/>
<feColorMatrix in="SourceAlpha" type="matrix" values="0 0 0 0 0 0 0 0 0 0 0 0 0 0 0 0 0 0 127 0" result="hardAlpha"/>
<feOffset dx="3" dy="-3"/>
<feGaussianBlur stdDeviation="7.5"/>
<feComposite in2="hardAlpha" operator="out"/>
<feColorMatrix type="matrix" values="0 0 0 0 1 0 0 0 0 0 0 0 0 0 0 0 0 0 1 0"/>
<feBlend mode="normal" in2="effect2_dropShadow_25_918" result="effect3_dropShadow_25_918"/>
<feBlend mode="normal" in="SourceGraphic" in2="effect3_dropShadow_25_918" result="shape"/>
</filter>
</defs>
</svg>
