<svg width="210" height="55" viewBox="0 0 210 55" fill="none" xmlns="http://www.w3.org/2000/svg">
<path d="M1.5 3V52.5H19.5V36L35 52.5H65.5C65.5 52.5 60.2295 48.2998 57.5 45C54.9799 41.9534 52 36.5 52 36.5H39.5L36 32C36 32 49.5 30.5 49.5 17C49.5 3.5 36 3 36 3H1.5Z" stroke="#F6DE00" stroke-width="3" stroke-linejoin="round"/>
<path d="M19 24.4998V15.4998C19 15.4998 31.5 15.4997 33 15.4998C35.5 15.5 35.5 24.4998 33 24.4998H19Z" stroke="#F6DE00" stroke-width="3" stroke-linejoin="round"/>
<path d="M78.5003 2.03159C41.5002 2.03157 44.4998 52.9994 79.5 52.9997C119 52.9998 114 0.530973 78.5003 2.03159Z" stroke="#F6DE00" stroke-width="3"/>
<path d="M78.5003 2.03159C41.5002 2.03157 44.4998 52.9994 79.5 52.9997C119 52.9998 114 0.530973 78.5003 2.03159Z" stroke="#F6DE00" stroke-width="3"/>
<path d="M79.9622 16.531C65.0001 16.531 66.0148 39.5309 79.9623 39.531C93.9097 39.5311 92.5 16.531 79.9622 16.531Z" stroke="#F6DE00" stroke-width="3"/>
<path d="M79.9622 16.531C65.0001 16.531 66.0148 39.5309 79.9623 39.531C93.9097 39.5311 92.5 16.531 79.9622 16.531Z" stroke="#F6DE00" stroke-width="3"/>
<path d="M159.501 17.4995L159.501 3H144.251H129C93.4991 16 109.999 47.0005 128.5 52.5H159.501V37.4995H135.501C123.5 34 122 22 135.501 17.4995H159.501Z" stroke="#F6DE00" stroke-width="3" stroke-linejoin="round"/>
<path d="M159.501 17.4995L159.501 3H144.251H129C93.4991 16 109.999 47.0005 128.5 52.5H159.501V37.4995H135.501C123.5 34 122 22 135.501 17.4995H159.501Z" stroke="#F6DE00" stroke-width="3" stroke-linejoin="round"/>
<path d="M177 3H161V52.5H177V39L189 52.5H208.5V38H194L186 28.5L204.5 3H188L177 19V3Z" stroke="#F6DE00" stroke-width="3" stroke-linejoin="round"/>
<path d="M177 3H161V52.5H177V39L189 52.5H208.5V38H194L186 28.5L204.5 3H188L177 19V3Z" stroke="#F6DE00" stroke-width="3" stroke-linejoin="round"/>
</svg>
