<svg width="140" height="124" viewBox="0 0 140 124" fill="none" xmlns="http://www.w3.org/2000/svg">
<g filter="url(#filter0_ddd_115_1289)">
<path d="M65.4823 77.8572L62.0864 74.7166L61.6013 73.9752L118.846 16.7683C118.846 16.7683 120.058 15.2586 122.484 16.4718C124.91 17.6849 123.697 19.6799 123.697 19.6799L65.4823 77.8572Z" fill="#C7FFAD"/>
<path d="M120.733 18.5012C120.803 18.5057 120.959 18.5274 121.207 18.6338L65.4152 74.3899L65.0557 74.0574L120.613 18.5367L120.646 18.5036C120.647 18.5035 120.647 18.5033 120.648 18.5032C120.66 18.5013 120.688 18.4983 120.733 18.5012ZM121.615 18.8648C121.618 18.8677 121.62 18.8693 121.619 18.8693C121.619 18.8694 121.618 18.8679 121.615 18.8648Z" stroke="#C7FFAD" stroke-width="5"/>
</g>
<path d="M57.963 77.8707L52.1415 83.6938L51.1713 84.6644L54.5671 88.0612L55.5374 87.0907L61.3588 81.2675L57.963 77.8707Z" fill="#363636" stroke="black"/>
<path d="M59.1758 71.8049L55.5374 75.4444L63.7844 83.6938L67.4228 80.0544L59.1758 71.8049Z" fill="#868686" stroke="black"/>
<path d="M41.5141 88.5015C41.2213 88.2085 40.7464 88.2085 40.4535 88.5013C40.1605 88.7942 40.1604 89.2691 40.4533 89.562L41.5141 88.5015ZM49.428 98.5393C49.7209 98.8323 50.1958 98.8323 50.4887 98.5395C50.7816 98.2466 50.7817 97.7717 50.4888 97.4788L49.428 98.5393ZM40.4533 89.562L49.428 98.5393L50.4888 97.4788L41.5141 88.5015L40.4533 89.562Z" fill="#363636"/>
<path d="M48.7909 80.98C48.4981 80.6871 48.0232 80.687 47.7302 80.9798C47.4373 81.2727 47.4372 81.7476 47.7301 82.0405L48.7909 80.98ZM56.7048 91.0178C56.9977 91.3108 57.4726 91.3108 57.7655 91.018C58.0584 90.7251 58.0585 90.2503 57.7656 89.9573L56.7048 91.0178ZM47.7301 82.0405L56.7048 91.0178L57.7656 89.9573L48.7909 80.98L47.7301 82.0405Z" fill="#363636"/>
<path d="M46.3653 83.4063C46.0725 83.1133 45.5976 83.1133 45.3046 83.4061C45.0117 83.699 45.0116 84.1738 45.3045 84.4668L46.3653 83.4063ZM54.2792 93.4441C54.5721 93.737 55.0469 93.7371 55.3399 93.4443C55.6328 93.1514 55.6329 92.6765 55.34 92.3836L54.2792 93.4441ZM45.3045 84.4668L54.2792 93.4441L55.34 92.3836L46.3653 83.4063L45.3045 84.4668Z" fill="#363636"/>
<path d="M43.9397 85.8325C43.6469 85.5396 43.172 85.5395 42.879 85.8324C42.5861 86.1252 42.586 86.6001 42.8789 86.893L43.9397 85.8325ZM51.8536 95.8704C52.1465 96.1633 52.6213 96.1634 52.9143 95.8705C53.2072 95.5777 53.2073 95.1028 52.9144 94.8099L51.8536 95.8704ZM42.8789 86.893L51.8536 95.8704L52.9144 94.8099L43.9397 85.8325L42.8789 86.893Z" fill="#363636"/>
<path d="M23.2768 107.472L39.0432 91.7007L47.2903 99.9501L31.5238 115.721L23.2768 107.472Z" fill="#363636" stroke="black"/>
<path d="M39.0432 91.7007L36.1325 89.0317H35.8899L27.6429 97.2812L30.5536 100.193L39.0432 91.7007Z" fill="#868686"/>
<path d="M36.1325 89.0317L36.4704 88.6632C36.3782 88.5786 36.2576 88.5317 36.1325 88.5317V89.0317ZM39.0432 91.7007L39.3968 92.0542L39.7659 91.685L39.3811 91.3321L39.0432 91.7007ZM30.5536 100.193L30.2 100.546L30.5536 100.9L30.9072 100.546L30.5536 100.193ZM27.6429 97.2812L27.2893 96.9277C27.0941 97.1229 27.0941 97.4394 27.2893 97.6347L27.6429 97.2812ZM35.8899 89.0317V88.5317C35.7573 88.5317 35.6301 88.5844 35.5363 88.6782L35.8899 89.0317ZM35.7946 89.4003L38.7053 92.0692L39.3811 91.3321L36.4704 88.6632L35.7946 89.4003ZM38.6896 91.3472L30.2 99.8392L30.9072 100.546L39.3968 92.0542L38.6896 91.3472ZM30.9072 99.8392L27.9965 96.9277L27.2893 97.6347L30.2 100.546L30.9072 99.8392ZM27.9965 97.6347L36.2435 89.3852L35.5363 88.6782L27.2893 96.9277L27.9965 97.6347ZM35.8899 89.5317H36.1325V88.5317H35.8899V89.5317Z" fill="black"/>
<path d="M16 114.751L18.7894 111.96L20.9725 114.144L24.0045 117.177L27.0365 120.21L24.2471 123L16 114.751Z" fill="#C7FFAD" stroke="black"/>
<path d="M25.2173 109.898L21.5789 106.259L17.2128 110.626L20.8512 114.265L25.2173 109.898Z" fill="#363636"/>
<path d="M21.5789 106.259L21.9325 105.905C21.8387 105.811 21.7115 105.759 21.5789 105.759C21.4463 105.759 21.3191 105.811 21.2253 105.905L21.5789 106.259ZM25.2173 109.898L25.5709 110.252L25.9243 109.898L25.5709 109.544L25.2173 109.898ZM20.8512 114.265L20.4976 114.619L20.8512 114.973L21.2048 114.619L20.8512 114.265ZM17.2128 110.626L16.8592 110.272C16.664 110.468 16.664 110.784 16.8592 110.979L17.2128 110.626ZM21.2253 106.612L24.8637 110.252L25.5709 109.544L21.9325 105.905L21.2253 106.612ZM24.8637 109.544L20.4976 113.912L21.2048 114.619L25.5709 110.252L24.8637 109.544ZM21.2048 113.912L17.5664 110.272L16.8592 110.979L20.4976 114.619L21.2048 113.912ZM17.5664 110.979L21.9325 106.612L21.2253 105.905L16.8592 110.272L17.5664 110.979Z" fill="black"/>
<path d="M29.3408 114.023L25.2173 109.898L20.8512 114.265L24.9747 118.39L29.3408 114.023Z" fill="#868686" stroke="black"/>
<path d="M32.9792 117.662L29.3408 114.023L24.9747 118.39L28.6131 122.03L32.9792 117.662Z" fill="#363636"/>
<path d="M29.3408 114.023L29.6944 113.669L29.3408 113.315L28.9872 113.669L29.3408 114.023ZM32.9792 117.662L33.3328 118.016C33.528 117.82 33.528 117.504 33.3328 117.309L32.9792 117.662ZM28.6131 122.03L28.2595 122.383C28.3533 122.477 28.4805 122.53 28.6131 122.53C28.7458 122.53 28.873 122.477 28.9667 122.383L28.6131 122.03ZM24.9747 118.39L24.6211 118.037L24.2677 118.39L24.6211 118.744L24.9747 118.39ZM28.9872 114.376L32.6256 118.016L33.3328 117.309L29.6944 113.669L28.9872 114.376ZM32.6256 117.309L28.2595 121.676L28.9667 122.383L33.3328 118.016L32.6256 117.309ZM28.9667 121.676L25.3283 118.037L24.6211 118.744L28.2595 122.383L28.9667 121.676ZM25.3283 118.744L29.6944 114.376L28.9872 113.669L24.6211 118.037L25.3283 118.744Z" fill="black"/>
<g filter="url(#filter1_ddd_115_1289)">
<path d="M74.5177 77.8572L77.9136 74.7166L78.3987 73.9752L21.1544 16.7683C21.1544 16.7683 19.9416 15.2586 17.516 16.4718C15.0904 17.6849 16.3032 19.6799 16.3032 19.6799L74.5177 77.8572Z" fill="#C7FFAD"/>
<path d="M19.2673 18.5012C19.1968 18.5057 19.0414 18.5274 18.7931 18.6338L74.5848 74.3899L74.9443 74.0574L19.3872 18.5367L19.3541 18.5036C19.3535 18.5035 19.3528 18.5033 19.3521 18.5032C19.3396 18.5013 19.3124 18.4983 19.2673 18.5012ZM18.3849 18.8648C18.3818 18.8677 18.3805 18.8693 18.3806 18.8693C18.3807 18.8694 18.3822 18.8679 18.3849 18.8648Z" stroke="#C7FFAD" stroke-width="5"/>
</g>
<path d="M82.037 77.8707L87.8585 83.6938L88.8287 84.6644L85.4329 88.0612L84.4626 87.0907L78.6412 81.2675L82.037 77.8707Z" fill="#363636" stroke="black"/>
<path d="M80.8242 71.8049L84.4626 75.4444L76.2156 83.6938L72.5772 80.0544L80.8242 71.8049Z" fill="#868686" stroke="black"/>
<path d="M98.4859 88.5015C98.7787 88.2085 99.2536 88.2085 99.5466 88.5013C99.8395 88.7942 99.8396 89.2691 99.5467 89.562L98.4859 88.5015ZM90.572 98.5393C90.2791 98.8323 89.8042 98.8323 89.5113 98.5395C89.2184 98.2466 89.2183 97.7717 89.5112 97.4788L90.572 98.5393ZM99.5467 89.562L90.572 98.5393L89.5112 97.4788L98.4859 88.5015L99.5467 89.562Z" fill="#363636"/>
<path d="M91.2091 80.98C91.5019 80.6871 91.9768 80.687 92.2698 80.9798C92.5627 81.2727 92.5628 81.7476 92.2699 82.0405L91.2091 80.98ZM83.2952 91.0178C83.0023 91.3108 82.5275 91.3108 82.2345 91.018C81.9416 90.7251 81.9415 90.2503 82.2344 89.9573L83.2952 91.0178ZM92.2699 82.0405L83.2952 91.0178L82.2344 89.9573L91.2091 80.98L92.2699 82.0405Z" fill="#363636"/>
<path d="M93.6347 83.4063C93.9275 83.1133 94.4024 83.1133 94.6954 83.4061C94.9883 83.699 94.9884 84.1738 94.6955 84.4668L93.6347 83.4063ZM85.7208 93.4441C85.4279 93.737 84.9531 93.7371 84.6601 93.4443C84.3672 93.1514 84.3671 92.6765 84.66 92.3836L85.7208 93.4441ZM94.6955 84.4668L85.7208 93.4441L84.66 92.3836L93.6347 83.4063L94.6955 84.4668Z" fill="#363636"/>
<path d="M96.0603 85.8325C96.3531 85.5396 96.828 85.5395 97.121 85.8324C97.4139 86.1252 97.414 86.6001 97.1211 86.893L96.0603 85.8325ZM88.1464 95.8704C87.8535 96.1633 87.3786 96.1634 87.0857 95.8705C86.7928 95.5777 86.7927 95.1028 87.0856 94.8099L88.1464 95.8704ZM97.1211 86.893L88.1464 95.8704L87.0856 94.8099L96.0603 85.8325L97.1211 86.893Z" fill="#363636"/>
<path d="M116.723 107.472L100.957 91.7007L92.7097 99.9501L108.476 115.721L116.723 107.472Z" fill="#363636" stroke="black"/>
<path d="M100.957 91.7007L103.868 89.0317H104.11L112.357 97.2812L109.446 100.193L100.957 91.7007Z" fill="#868686"/>
<path d="M103.868 89.0317L103.53 88.6632C103.622 88.5786 103.742 88.5317 103.868 88.5317V89.0317ZM100.957 91.7007L100.603 92.0542L100.234 91.685L100.619 91.3321L100.957 91.7007ZM109.446 100.193L109.8 100.546L109.446 100.9L109.093 100.546L109.446 100.193ZM112.357 97.2812L112.711 96.9277C112.906 97.1229 112.906 97.4394 112.711 97.6347L112.357 97.2812ZM104.11 89.0317V88.5317C104.243 88.5317 104.37 88.5844 104.464 88.6782L104.11 89.0317ZM104.205 89.4003L101.295 92.0692L100.619 91.3321L103.53 88.6632L104.205 89.4003ZM101.31 91.3472L109.8 99.8392L109.093 100.546L100.603 92.0542L101.31 91.3472ZM109.093 99.8392L112.004 96.9277L112.711 97.6347L109.8 100.546L109.093 99.8392ZM112.004 97.6347L103.756 89.3852L104.464 88.6782L112.711 96.9277L112.004 97.6347ZM104.11 89.5317H103.868V88.5317H104.11V89.5317Z" fill="black"/>
<path d="M124 114.751L121.211 111.96L119.028 114.144L115.996 117.177L112.964 120.21L115.753 123L124 114.751Z" fill="#C7FFAD" stroke="black"/>
<path d="M114.783 109.898L118.421 106.259L122.787 110.626L119.149 114.265L114.783 109.898Z" fill="#363636"/>
<path d="M118.421 106.259L118.068 105.905C118.161 105.811 118.289 105.759 118.421 105.759C118.554 105.759 118.681 105.811 118.775 105.905L118.421 106.259ZM114.783 109.898L114.429 110.252L114.076 109.898L114.429 109.544L114.783 109.898ZM119.149 114.265L119.502 114.619L119.149 114.973L118.795 114.619L119.149 114.265ZM122.787 110.626L123.141 110.272C123.336 110.468 123.336 110.784 123.141 110.979L122.787 110.626ZM118.775 106.612L115.136 110.252L114.429 109.544L118.068 105.905L118.775 106.612ZM115.136 109.544L119.502 113.912L118.795 114.619L114.429 110.252L115.136 109.544ZM118.795 113.912L122.434 110.272L123.141 110.979L119.502 114.619L118.795 113.912ZM122.434 110.979L118.068 106.612L118.775 105.905L123.141 110.272L122.434 110.979Z" fill="black"/>
<path d="M110.659 114.023L114.783 109.898L119.149 114.265L115.025 118.39L110.659 114.023Z" fill="#868686" stroke="black"/>
<path d="M107.021 117.662L110.659 114.023L115.025 118.39L111.387 122.03L107.021 117.662Z" fill="#363636"/>
<path d="M110.659 114.023L110.306 113.669L110.659 113.315L111.013 113.669L110.659 114.023ZM107.021 117.662L106.667 118.016C106.472 117.82 106.472 117.504 106.667 117.309L107.021 117.662ZM111.387 122.03L111.74 122.383C111.647 122.477 111.519 122.53 111.387 122.53C111.254 122.53 111.127 122.477 111.033 122.383L111.387 122.03ZM115.025 118.39L115.379 118.037L115.732 118.39L115.379 118.744L115.025 118.39ZM111.013 114.376L107.374 118.016L106.667 117.309L110.306 113.669L111.013 114.376ZM107.374 117.309L111.74 121.676L111.033 122.383L106.667 118.016L107.374 117.309ZM111.033 121.676L114.672 118.037L115.379 118.744L111.74 122.383L111.033 121.676ZM114.672 118.744L110.306 114.376L111.013 113.669L115.379 118.037L114.672 118.744Z" fill="black"/>
<defs>
<filter id="filter0_ddd_115_1289" x="45.6013" y="0" width="94.3987" height="93.8572" filterUnits="userSpaceOnUse" color-interpolation-filters="sRGB">
<feFlood flood-opacity="0" result="BackgroundImageFix"/>
<feColorMatrix in="SourceAlpha" type="matrix" values="0 0 0 0 0 0 0 0 0 0 0 0 0 0 0 0 0 0 127 0" result="hardAlpha"/>
<feOffset/>
<feGaussianBlur stdDeviation="8"/>
<feComposite in2="hardAlpha" operator="out"/>
<feColorMatrix type="matrix" values="0 0 0 0 0.0784314 0 0 0 0 1 0 0 0 0 0 0 0 0 1 0"/>
<feBlend mode="normal" in2="BackgroundImageFix" result="effect1_dropShadow_115_1289"/>
<feColorMatrix in="SourceAlpha" type="matrix" values="0 0 0 0 0 0 0 0 0 0 0 0 0 0 0 0 0 0 127 0" result="hardAlpha"/>
<feOffset dx="-1" dy="1"/>
<feGaussianBlur stdDeviation="3"/>
<feComposite in2="hardAlpha" operator="out"/>
<feColorMatrix type="matrix" values="0 0 0 0 0.0784314 0 0 0 0 1 0 0 0 0 0 0 0 0 1 0"/>
<feBlend mode="normal" in2="effect1_dropShadow_115_1289" result="effect2_dropShadow_115_1289"/>
<feColorMatrix in="SourceAlpha" type="matrix" values="0 0 0 0 0 0 0 0 0 0 0 0 0 0 0 0 0 0 127 0" result="hardAlpha"/>
<feOffset dx="3" dy="-3"/>
<feGaussianBlur stdDeviation="5.5"/>
<feComposite in2="hardAlpha" operator="out"/>
<feColorMatrix type="matrix" values="0 0 0 0 0.08 0 0 0 0 1 0 0 0 0 0 0 0 0 1 0"/>
<feBlend mode="normal" in2="effect2_dropShadow_115_1289" result="effect3_dropShadow_115_1289"/>
<feBlend mode="normal" in="SourceGraphic" in2="effect3_dropShadow_115_1289" result="shape"/>
</filter>
<filter id="filter1_ddd_115_1289" x="0" y="0" width="94.3987" height="93.8572" filterUnits="userSpaceOnUse" color-interpolation-filters="sRGB">
<feFlood flood-opacity="0" result="BackgroundImageFix"/>
<feColorMatrix in="SourceAlpha" type="matrix" values="0 0 0 0 0 0 0 0 0 0 0 0 0 0 0 0 0 0 127 0" result="hardAlpha"/>
<feOffset/>
<feGaussianBlur stdDeviation="8"/>
<feComposite in2="hardAlpha" operator="out"/>
<feColorMatrix type="matrix" values="0 0 0 0 0.0784314 0 0 0 0 1 0 0 0 0 0 0 0 0 1 0"/>
<feBlend mode="normal" in2="BackgroundImageFix" result="effect1_dropShadow_115_1289"/>
<feColorMatrix in="SourceAlpha" type="matrix" values="0 0 0 0 0 0 0 0 0 0 0 0 0 0 0 0 0 0 127 0" result="hardAlpha"/>
<feOffset dx="-1" dy="1"/>
<feGaussianBlur stdDeviation="3"/>
<feComposite in2="hardAlpha" operator="out"/>
<feColorMatrix type="matrix" values="0 0 0 0 0.0784314 0 0 0 0 1 0 0 0 0 0 0 0 0 1 0"/>
<feBlend mode="normal" in2="effect1_dropShadow_115_1289" result="effect2_dropShadow_115_1289"/>
<feColorMatrix in="SourceAlpha" type="matrix" values="0 0 0 0 0 0 0 0 0 0 0 0 0 0 0 0 0 0 127 0" result="hardAlpha"/>
<feOffset dx="3" dy="-3"/>
<feGaussianBlur stdDeviation="5.5"/>
<feComposite in2="hardAlpha" operator="out"/>
<feColorMatrix type="matrix" values="0 0 0 0 0.08 0 0 0 0 1 0 0 0 0 0 0 0 0 1 0"/>
<feBlend mode="normal" in2="effect2_dropShadow_115_1289" result="effect3_dropShadow_115_1289"/>
<feBlend mode="normal" in="SourceGraphic" in2="effect3_dropShadow_115_1289" result="shape"/>
</filter>
</defs>
</svg>
