<svg width="356" height="55" viewBox="0 0 356 55" fill="none" xmlns="http://www.w3.org/2000/svg">
<path d="M228.521 2.03159C191.521 2.03157 194.521 52.9994 229.521 52.9997C269.021 52.9998 264.021 0.530973 228.521 2.03159Z" stroke="#F6DE00" stroke-width="3" stroke-linejoin="round"/>
<path d="M228.521 2.03159C191.521 2.03157 194.521 52.9994 229.521 52.9997C269.021 52.9998 264.021 0.530973 228.521 2.03159Z" stroke="#F6DE00" stroke-width="3" stroke-linejoin="round"/>
<path d="M229.983 16.531C215.021 16.531 216.036 39.5309 229.983 39.531C243.931 39.5311 242.521 16.531 229.983 16.531Z" stroke="#F6DE00" stroke-width="3" stroke-linejoin="round"/>
<path d="M229.983 16.531C215.021 16.531 216.036 39.5309 229.983 39.531C243.931 39.5311 242.521 16.531 229.983 16.531Z" stroke="#F6DE00" stroke-width="3" stroke-linejoin="round"/>
<path d="M95.4276 17.4995L95.4276 3H80.1776H64.9268C29.4258 16 45.9256 47.0005 64.4266 52.5H95.4276V37.4995H71.4276C59.4266 34 57.9266 22 71.4276 17.4995H95.4276Z" stroke="#F6DE00" stroke-width="3" stroke-linejoin="round"/>
<path d="M95.4276 17.4995L95.4276 3H80.1776H64.9268C29.4258 16 45.9256 47.0005 64.4266 52.5H95.4276V37.4995H71.4276C59.4266 34 57.9266 22 71.4276 17.4995H95.4276Z" stroke="#F6DE00" stroke-width="3" stroke-linejoin="round"/>
<path d="M261 2.5V52H278.5C278.5 46.8333 278.7 37.5 279.5 39.5C280.3 41.5 289.833 48.5 294.5 52H313V38C313 38 298.191 38.0885 301 36C320.5 21.5 305.5 6.16667 296 2.5H261Z" stroke="#F6DE00" stroke-width="3" stroke-linejoin="round"/>
<path d="M278 26V18.5H291.5C294 18.5 294 26 291.5 26H278Z" stroke="#F6DE00" stroke-width="3" stroke-linejoin="round"/>
<path d="M99 52.5005V3H117V52.5005H99Z" stroke="#F6DE00" stroke-width="3" stroke-linejoin="round"/>
<path d="M42 18.4452V3.14526C40 3.14554 17.463 2.81828 16 3.14526C-10.5 9.06813 14 32.2646 16 34.7323C17.6 36.7065 16.6667 37.5291 16 37.6936H1V52.5H29C35.604 52.5 37.9669 45.939 38 41.1487C38.0526 33.5229 31 26.3423 26.5 21.9004C23.0942 18.5384 25.1667 18.4452 26.5 18.4452H42Z" stroke="#F6DE00" stroke-width="2" stroke-linejoin="round"/>
<path d="M42 18.4452V3.14526C40 3.14554 17.463 2.81828 16 3.14526C-10.5 9.06813 14 32.2646 16 34.7323C17.6 36.7065 16.6667 37.5291 16 37.6936H1V52.5H29C35.604 52.5 37.9669 45.939 38 41.1487C38.0526 33.5229 31 26.3423 26.5 21.9004C23.0942 18.5384 25.1667 18.4452 26.5 18.4452H42Z" stroke="#F6DE00" stroke-width="2" stroke-linejoin="round"/>
<path d="M355 18.4452V3.14526C353 3.14554 330.463 2.81828 329 3.14526C302.5 9.06813 327 32.2646 329 34.7323C330.6 36.7065 329.667 37.5291 329 37.6936H314V52.5H342C348.604 52.5 350.967 45.939 351 41.1487C351.053 33.5229 344 26.3423 339.5 21.9004C336.094 18.5384 338.167 18.4452 339.5 18.4452H355Z" stroke="#F6DE00" stroke-width="2" stroke-linejoin="round"/>
<path d="M355 18.4452V3.14526C353 3.14554 330.463 2.81828 329 3.14526C302.5 9.06813 327 32.2646 329 34.7323C330.6 36.7065 329.667 37.5291 329 37.6936H314V52.5H342C348.604 52.5 350.967 45.939 351 41.1487C351.053 33.5229 344 26.3423 339.5 21.9004C336.094 18.5384 338.167 18.4452 339.5 18.4452H355Z" stroke="#F6DE00" stroke-width="2" stroke-linejoin="round"/>
<path d="M201 18.5927V3.29272C199 3.293 176.463 2.96575 175 3.29272C148.5 9.21559 173 32.412 175 34.8798C176.6 36.8539 175.667 37.6765 175 37.841H160V52.6475H188C194.604 52.6475 196.967 46.0865 197 41.2962C197.053 33.6703 190 26.4897 185.5 22.0478C182.094 18.6859 184.167 18.5927 185.5 18.5927H201Z" stroke="#F6DE00" stroke-width="2" stroke-linejoin="round"/>
<path d="M201 18.5927V3.29272C199 3.293 176.463 2.96575 175 3.29272C148.5 9.21559 173 32.412 175 34.8798C176.6 36.8539 175.667 37.6765 175 37.841H160V52.6475H188C194.604 52.6475 196.967 46.0865 197 41.2962C197.053 33.6703 190 26.4897 185.5 22.0478C182.094 18.6859 184.167 18.5927 185.5 18.5927H201Z" stroke="#F6DE00" stroke-width="2" stroke-linejoin="round"/>
<path d="M161 18.4452V3.14526C159 3.14554 136.463 2.81828 135 3.14526C108.5 9.06813 133 32.2646 135 34.7323C136.6 36.7065 135.667 37.5291 135 37.6936H120V52.5H148C154.604 52.5 156.967 45.939 157 41.1487C157.053 33.5229 150 26.3423 145.5 21.9004C142.094 18.5384 144.167 18.4452 145.5 18.4452H161Z" stroke="#F6DE00" stroke-width="2" stroke-linejoin="round"/>
<path d="M161 18.4452V3.14526C159 3.14554 136.463 2.81828 135 3.14526C108.5 9.06813 133 32.2646 135 34.7323C136.6 36.7065 135.667 37.5291 135 37.6936H120V52.5H148C154.604 52.5 156.967 45.939 157 41.1487C157.053 33.5229 150 26.3423 145.5 21.9004C142.094 18.5384 144.167 18.4452 145.5 18.4452H161Z" stroke="#F6DE00" stroke-width="2" stroke-linejoin="round"/>
</svg>
