<svg width="102" height="49" viewBox="0 0 102 49" fill="none" xmlns="http://www.w3.org/2000/svg">
<path d="M55.0855 17.986H53.8541H53.6781V15.5089H92.7319V23.4711H51.919V22.0556H55.0855V17.986Z" fill="#363636" stroke="black"/>
<path d="M92.7319 18.163H55.2614V19.2246L92.7319 19.5785V18.163Z" fill="#C4C4C4"/>
<path d="M41.8917 15.3319V14.0934H52.6226V15.3319H41.8917Z" fill="#363636" stroke="black"/>
<path d="M55.9651 13.9164L53.6782 15.5089H92.556L90.4449 13.9164H55.9651Z" fill="#868686" stroke="black"/>
<path fill-rule="evenodd" clip-rule="evenodd" d="M26.9387 29.6639L19.726 42.0496L28.346 47.5347H29.9293L30.2811 42.7573L25.8832 40.2802L29.9293 34.2643H35.0309H42.5953L48.5765 28.0715H57.9002L60.5389 27.1868L62.474 28.0715H78.3066L82.5286 28.9562H99.5927V28.0715H101V24.5327H99.5927L97.4816 23.4711H95.1947V15.5089H92.7319V23.4711H51.919V21.8787H44.8823V17.8091H53.6782V15.5089H35.0309V8.78528H23.5962V14.0934H14.2726L13.393 11.9702L7.93956 15.5089V16.7475H13.393L14.2726 15.5089H23.5962V24.5327L22.013 26.1252V28.0715H25.0036L26.9387 29.6639ZM37.1419 28.0715H46.8174L42.5953 32.4949H35.5586L36.3503 30.2832L37.1419 28.0715Z" fill="white"/>
<path d="M19.726 42.0496L19.294 41.798L19.0521 42.2134L19.4576 42.4714L19.726 42.0496ZM26.9387 29.6639L27.3707 29.9156L27.5847 29.5481L27.2564 29.2779L26.9387 29.6639ZM28.346 47.5347L28.0776 47.9565L28.2004 48.0347H28.346V47.5347ZM29.9293 47.5347V48.0347H30.3938L30.4279 47.5714L29.9293 47.5347ZM30.2811 42.7573L30.7798 42.7941L30.8031 42.4775L30.5265 42.3217L30.2811 42.7573ZM25.8832 40.2802L25.4683 40.0012L25.1662 40.4503L25.6378 40.7159L25.8832 40.2802ZM29.9293 34.2643V33.7643H29.663L29.5144 33.9853L29.9293 34.2643ZM42.5953 34.2643V34.7643H42.8076L42.955 34.6117L42.5953 34.2643ZM48.5765 28.0715V27.5715H48.3643L48.2169 27.7241L48.5765 28.0715ZM57.9002 28.0715V28.5715H57.9818L58.0591 28.5456L57.9002 28.0715ZM60.5389 27.1868L60.7468 26.7321L60.5672 26.65L60.38 26.7127L60.5389 27.1868ZM62.474 28.0715L62.2661 28.5262L62.3652 28.5715H62.474V28.0715ZM78.3066 28.0715L78.4092 27.5821L78.3584 27.5715H78.3066V28.0715ZM82.5286 28.9562L82.4261 29.4456L82.4768 29.4562H82.5286V28.9562ZM99.5927 28.9562V29.4562H100.093V28.9562H99.5927ZM99.5927 28.0715V27.5715H99.0927V28.0715H99.5927ZM101 28.0715V28.5715H101.5V28.0715H101ZM101 24.5327H101.5V24.0327H101V24.5327ZM99.5927 24.5327L99.368 24.9794L99.474 25.0327H99.5927V24.5327ZM97.4816 23.4711L97.7063 23.0244L97.6003 22.9711H97.4816V23.4711ZM95.1947 23.4711H94.6947V23.9711H95.1947V23.4711ZM95.1947 15.5089H95.6947V15.0089H95.1947V15.5089ZM92.7319 15.5089V15.0089H92.2319V15.5089H92.7319ZM92.7319 23.4711V23.9711H93.2319V23.4711H92.7319ZM51.919 23.4711H51.419V23.9711H51.919V23.4711ZM51.919 21.8787H52.419V21.3787H51.919V21.8787ZM44.8823 21.8787H44.3823V22.3787H44.8823V21.8787ZM44.8823 17.8091V17.3091H44.3823V17.8091H44.8823ZM53.6782 17.8091V18.3091H54.1782V17.8091H53.6782ZM53.6782 15.5089H54.1782V15.0089H53.6782V15.5089ZM35.0309 15.5089H34.5309V16.0089H35.0309V15.5089ZM35.0309 8.78528H35.5309V8.28528H35.0309V8.78528ZM23.5962 8.78528V8.28528H23.0962V8.78528H23.5962ZM23.5962 14.0934V14.5934H24.0962V14.0934H23.5962ZM14.2726 14.0934L13.8107 14.2848L13.9385 14.5934H14.2726V14.0934ZM13.393 11.9702L13.8549 11.7788L13.6249 11.2236L13.1208 11.5507L13.393 11.9702ZM7.93956 15.5089L7.66739 15.0895L7.43956 15.2373V15.5089H7.93956ZM7.93956 16.7475H7.43956V17.2475H7.93956V16.7475ZM13.393 16.7475V17.2475H13.6512L13.8007 17.037L13.393 16.7475ZM14.2726 15.5089V15.0089H14.0144L13.8649 15.2194L14.2726 15.5089ZM23.5962 15.5089H24.0962V15.0089H23.5962V15.5089ZM23.5962 24.5327L23.9508 24.8853L24.0962 24.739V24.5327H23.5962ZM22.013 26.1252L21.6584 25.7727L21.513 25.9189V26.1252H22.013ZM22.013 28.0715H21.513V28.5715H22.013V28.0715ZM25.0036 28.0715L25.3213 27.6854L25.1829 27.5715H25.0036V28.0715ZM46.8174 28.0715L47.1791 28.4167L47.9858 27.5715H46.8174V28.0715ZM37.1419 28.0715V27.5715H36.7898L36.6711 27.903L37.1419 28.0715ZM42.5953 32.4949V32.9949H42.8093L42.957 32.8402L42.5953 32.4949ZM35.5586 32.4949L35.0879 32.3265L34.8486 32.9949H35.5586V32.4949ZM46.8174 28.0715L46.8174 27.5715H46.8174V28.0715ZM20.1581 42.3012L27.3707 29.9156L26.5066 29.4123L19.294 41.798L20.1581 42.3012ZM28.6144 47.1128L19.9945 41.6278L19.4576 42.4714L28.0776 47.9565L28.6144 47.1128ZM29.9293 47.0347H28.346V48.0347H29.9293V47.0347ZM29.7825 42.7206L29.4306 47.4979L30.4279 47.5714L30.7798 42.7941L29.7825 42.7206ZM25.6378 40.7159L30.0357 43.193L30.5265 42.3217L26.1285 39.8446L25.6378 40.7159ZM29.5144 33.9853L25.4683 40.0012L26.2981 40.5593L30.3442 34.5434L29.5144 33.9853ZM35.0309 33.7643H29.9293V34.7643H35.0309V33.7643ZM42.5953 33.7643H35.0309V34.7643H42.5953V33.7643ZM48.2169 27.7241L42.2357 33.917L42.955 34.6117L48.9362 28.4189L48.2169 27.7241ZM57.9002 27.5715H48.5765V28.5715H57.9002V27.5715ZM60.38 26.7127L57.7412 27.5974L58.0591 28.5456L60.6979 27.6609L60.38 26.7127ZM62.6819 27.6168L60.7468 26.7321L60.331 27.6415L62.2661 28.5262L62.6819 27.6168ZM78.3066 27.5715H62.474V28.5715H78.3066V27.5715ZM82.6312 28.4668L78.4092 27.5821L78.2041 28.5609L82.4261 29.4456L82.6312 28.4668ZM99.5927 28.4562H82.5286V29.4562H99.5927V28.4562ZM99.0927 28.0715V28.9562H100.093V28.0715H99.0927ZM101 27.5715H99.5927V28.5715H101V27.5715ZM100.5 24.5327V28.0715H101.5V24.5327H100.5ZM99.5927 25.0327H101V24.0327H99.5927V25.0327ZM97.257 23.9178L99.368 24.9794L99.8173 24.0861L97.7063 23.0244L97.257 23.9178ZM95.1947 23.9711H97.4816V22.9711H95.1947V23.9711ZM94.6947 15.5089V23.4711H95.6947V15.5089H94.6947ZM92.7319 16.0089H95.1947V15.0089H92.7319V16.0089ZM93.2319 23.4711V15.5089H92.2319V23.4711H93.2319ZM51.919 23.9711H92.7319V22.9711H51.919V23.9711ZM51.419 21.8787V23.4711H52.419V21.8787H51.419ZM44.8823 22.3787H51.919V21.3787H44.8823V22.3787ZM44.3823 17.8091V21.8787H45.3823V17.8091H44.3823ZM53.6782 17.3091H44.8823V18.3091H53.6782V17.3091ZM53.1782 15.5089V17.8091H54.1782V15.5089H53.1782ZM35.0309 16.0089H53.6782V15.0089H35.0309V16.0089ZM34.5309 8.78528V15.5089H35.5309V8.78528H34.5309ZM23.5962 9.28528H35.0309V8.28528H23.5962V9.28528ZM24.0962 14.0934V8.78528H23.0962V14.0934H24.0962ZM14.2726 14.5934H23.5962V13.5934H14.2726V14.5934ZM12.9311 12.1615L13.8107 14.2848L14.7345 13.9021L13.8549 11.7788L12.9311 12.1615ZM8.21173 15.9283L13.6652 12.3896L13.1208 11.5507L7.66739 15.0895L8.21173 15.9283ZM8.43956 16.7475V15.5089H7.43956V16.7475H8.43956ZM13.393 16.2475H7.93956V17.2475H13.393V16.2475ZM13.8649 15.2194L12.9853 16.458L13.8007 17.037L14.6803 15.7984L13.8649 15.2194ZM23.5962 15.0089H14.2726V16.0089H23.5962V15.0089ZM24.0962 24.5327V15.5089H23.0962V24.5327H24.0962ZM22.3675 26.4777L23.9508 24.8853L23.2417 24.1802L21.6584 25.7727L22.3675 26.4777ZM22.513 28.0715V26.1252H21.513V28.0715H22.513ZM25.0036 27.5715H22.013V28.5715H25.0036V27.5715ZM27.2564 29.2779L25.3213 27.6854L24.6859 28.4576L26.621 30.05L27.2564 29.2779ZM46.8174 27.5715H37.1419V28.5715H46.8174V27.5715ZM42.957 32.8402L47.1791 28.4167L46.4557 27.7263L42.2336 32.1497L42.957 32.8402ZM35.5586 32.9949H42.5953V31.9949H35.5586V32.9949ZM35.8795 30.1147L35.0879 32.3265L36.0294 32.6634L36.821 30.4517L35.8795 30.1147ZM36.6711 27.903L35.8795 30.1147L36.821 30.4517L37.6126 28.24L36.6711 27.903ZM35.5041 34.4257L36.1073 32.6563L35.1608 32.3336L34.5576 34.103L35.5041 34.4257ZM37.1419 28.5715H46.8174V27.5715H37.1419V28.5715ZM46.8174 28.5715L48.5765 28.5715L48.5765 27.5715L46.8174 27.5715L46.8174 28.5715ZM42.957 32.8402L47.1791 28.4167L46.4557 27.7263L42.2336 32.1497L42.957 32.8402Z" fill="black"/>
<path d="M40.8362 28.0715C40.9534 29.0151 41.5398 30.9379 42.9472 31.0794" stroke="black" stroke-width="2"/>
<path d="M29.9293 34.2643H33.4476H33.6235L29.0497 42.0495L25.8832 40.2802L29.9293 34.2643Z" fill="#868686" stroke="black"/>
<path d="M30.1052 42.7573L34.855 34.4412L35.0309 34.2643H33.6235L29.0497 42.0495L30.1052 42.7573Z" fill="#363636" stroke="black"/>
<path d="M2.83793 15.6858C3.1194 15.4027 6.35629 16.0397 7.93955 16.3936V17.2783H7.23589V22.9403H23.4203V23.825H8.64323L7.93955 24.3558C6.8254 24.4738 4.38602 24.7097 3.54162 24.7097C2.48611 24.7097 2.83793 24.5327 1.43059 22.4095C0.0232512 20.2862 2.4861 16.0397 2.83793 15.6858Z" stroke="black"/>
<path d="M14.2726 15.5089H23.5962V22.9403H7.23589V17.2783H7.93956V16.7475H13.393L14.2726 15.5089Z" fill="#363636" stroke="black"/>
<path d="M25.8832 4.89261V8.60831V8.78524H34.855V8.07749H32.7439V4.89261H31.5125V3.30017H27.4664V4.89261H25.8832Z" fill="#C4C4C4" stroke="black"/>
<path d="M44.3545 5.24652H32.7439V8.07753H34.855V8.78528H35.2068V9.13915H44.3545V5.24652Z" fill="#363636" stroke="black"/>
<path d="M46.6414 4.7157H44.8823V5.06957H44.7063H44.3545V9.49302H44.8823V9.8469H46.6414V9.49302H46.9933V5.06957H46.6414V4.7157Z" fill="white" stroke="black"/>
<path d="M10.9302 4.00793H13.5689V8.60832V10.0238H13.393H10.7542L10.0506 8.96219V5.2465L10.9302 4.00793Z" fill="white" stroke="black"/>
<path d="M28.346 2.59244V3.47713H30.6329V2.59244H31.3366V1H27.4664V2.59244H28.346Z" fill="#363636"/>
<path d="M21.8371 5.42345H25.8832V8.25445H21.8371L19.3742 9.13914H16.9114H13.5689V4.71569H16.9114H19.3742L21.8371 5.42345Z" fill="#363636"/>
<path d="M28.346 2.59244V3.47713H30.6329V2.59244H31.3366V1H27.4664V2.59244H28.346Z" stroke="black"/>
<path d="M21.8371 5.42345H25.8832V8.25445H21.8371L19.3742 9.13914H16.9114H13.5689V4.71569H16.9114H19.3742L21.8371 5.42345Z" stroke="black"/>
</svg>
