<svg width="267" height="64" viewBox="0 0 267 64" fill="none" xmlns="http://www.w3.org/2000/svg">
<path d="M2 18V3H51V18H35V50H17V18H2Z" stroke="#F6DE00" stroke-width="3"/>
<path d="M55.5 50V3.5H70.5V50H55.5Z" stroke="#F6DE00" stroke-width="3" stroke-linejoin="round"/>
<path d="M102 3.5H87V42.5C87 46.5 75 46.5 75 46.5L77.5 61.5C77.5 61.5 83.5 62 91 60.5C98.5 59 102 51 102 51V3.5Z" stroke="#F6DE00" stroke-width="3"/>
<path d="M157 2V49H174.5C174.5 43.8333 174.7 34 175.5 36C176.3 38 185.833 45.5 190.5 49H209V34.5C209 34.5 194.191 34.5885 197 32.5C216.5 18 201.5 5.66667 192 2H157Z" stroke="#F6DE00" stroke-width="3" stroke-linejoin="round"/>
<path d="M174 22.5V15H187.5C190 15 190 22.5 187.5 22.5H174Z" stroke="#F6DE00" stroke-width="3" stroke-linejoin="round"/>
<path d="M152 2H107V50.5H152V34.5H123.5V31H140.5V20.5H123.5V17H152V2Z" stroke="#F6DE00" stroke-width="3" stroke-linejoin="round"/>
<path d="M230 48.5H212L225 2H252L264.5 48.5H246.5L244.5 42.5H232L230 48.5Z" stroke="#F6DE00" stroke-width="3"/>
<path d="M234.5 30.5L238 18L241.5 30.5H234.5Z" stroke="#F6DE00" stroke-width="3"/>
</svg>
