<svg width="24" height="24" viewBox="0 0 24 24" fill="none" xmlns="http://www.w3.org/2000/svg">
<rect width="24" height="24" fill="#F6DE00"/>
<path d="M7.727 6.313L3.707 2.293L2.293 3.707L20.293 21.707L21.707 20.293L19.687 18.273C21.1861 16.5276 22.0068 14.3008 21.999 12C21.999 7.909 19.527 4.547 16 3V5C18.387 6.386 19.999 9.047 19.999 12C19.9939 13.7766 19.4069 15.5026 18.328 16.914L17.042 15.628C17.644 14.536 18 13.19 18 12C18 10.229 17.225 8.1 16 7V14.586L14 12.586V2.132L7.727 6.313ZM4 17H6.697L14 21.868V18.121L3.102 7.223C2.77189 7.38824 2.4941 7.64184 2.29954 7.95556C2.10499 8.26929 2.00129 8.63085 2 9V15C2 16.103 2.897 17 4 17Z" fill="black"/>
</svg>
